<?xml version="1.0" encoding="UTF-8"?>
<svg version="1.1" xmlns="http://www.w3.org/2000/svg" width="591" height="328">
<path d="M0 0 C13.95369627 11.9439986 23.45743602 26.95903851 26.6875 45.1875 C28.20325883 66.87644081 25.31702997 87.19230778 10.70825195 104.09619141 C-2.51090956 118.57553186 -18.96500131 128.5783464 -38.90234375 129.5 C-60.37427438 130.10946898 -79.20033835 125.20545713 -95.3125 110.1875 C-106.13128245 99.80364348 -112.78152141 87.69044595 -116.3125 73.1875 C-116.50328125 72.44242187 -116.6940625 71.69734375 -116.890625 70.9296875 C-119.98525718 50.81457831 -115.92032908 30.83518408 -104.17578125 14.15234375 C-78.8495684 -17.98056505 -33.06582479 -25.25861616 0 0 Z " fill="#1F4E97" transform="translate(336.3125,14.8125)"/>
<path d="M0 0 C3.34090234 3.76053258 5.02236717 7.6803369 4.9375 12.6875 C4.04851726 15.82857236 3.04247107 18.90719163 2 22 C3.00160156 21.7834375 4.00320313 21.566875 5.03515625 21.34375 C6.37752737 21.06213368 7.71997971 20.78090434 9.0625 20.5 C9.71927734 20.35691406 10.37605469 20.21382812 11.05273438 20.06640625 C21.94401278 17.8130383 21.94401278 17.8130383 26.65234375 20.53125 C27.78349609 21.50578125 27.78349609 21.50578125 28.9375 22.5 C29.70964844 23.1496875 30.48179687 23.799375 31.27734375 24.46875 C31.84582031 24.9740625 32.41429687 25.479375 33 26 C32.11699062 31.60562132 30.04097682 35.96705693 26 40 C22.68797579 41.29321959 19.53816875 41.78323472 16 42 C17.85392209 45.0126234 19.45084863 47.51366669 22.1171875 49.875 C24.62725695 52.16793542 26.37654993 53.99703795 28 57 C28.0938253 62.22294168 27.22646352 66.94083799 26 72 C12.6736977 73.06813873 12.6736977 73.06813873 8.66796875 70.51171875 C5 66.20118613 5 66.20118613 5 63 C4.34 63 3.68 63 3 63 C2.81824219 63.70125 2.63648438 64.4025 2.44921875 65.125 C1.92571316 67.10089803 1.38433012 69.07211893 0.828125 71.0390625 C0.33749445 72.79329813 -0.12299429 74.5572014 -0.515625 76.3359375 C-1.44042269 79.78411176 -2.30725141 81.49343515 -5.23828125 83.63671875 C-11.58216721 87.06711634 -11.58216721 87.06711634 -15.640625 86.875 C-19.4232986 85.47215416 -20.362471 82.94809794 -22.12109375 79.48046875 C-24.08776659 73.93008096 -22.18322094 69.25422466 -20 64 C-20.83402344 64.2165625 -21.66804688 64.433125 -22.52734375 64.65625 C-37.18033506 68.28173239 -37.18033506 68.28173239 -42 67 C-45.29812665 64.96960656 -48.1628881 62.62919117 -51 60 C-50.10883076 54.41533944 -48.18568016 49.90395169 -44 46 C-40.29235132 44.95595058 -36.83436476 44.82943217 -33 45 C-34.83490266 42.01828318 -36.54133258 39.45166487 -39.046875 36.984375 C-44.73336864 31.37854084 -44.73336864 31.37854084 -45.55078125 27.15234375 C-45.56904855 22.62814266 -44.94540895 18.41720485 -44 14 C-31.78455176 12.93263074 -31.78455176 12.93263074 -27.51171875 15.48828125 C-25.75219797 17.24780203 -24.2827766 18.86846897 -23 21 C-23 21.66 -23 22.32 -23 23 C-22.34 23 -21.68 23 -21 23 C-20.7525 21.72125 -20.505 20.4425 -20.25 19.125 C-17.09592197 5.61361167 -17.09592197 5.61361167 -12.69140625 2.22265625 C-8.22631532 -0.1724371 -4.98266842 -1.83658687 0 0 Z " fill="#1B4B95" transform="translate(300,29)"/>
<path d="M0 0 C9.04943365 8.1957135 14.73084469 19.630059 15.55078125 31.78125 C15.8319498 46.81636823 12.43039174 59.34423662 2.05859375 70.72265625 C-9.47520914 81.81213929 -22.14874911 85.81399801 -37.8359375 85.5625 C-47.74159005 84.75879594 -55.91245152 81.32616977 -63.6875 75.25 C-64.30109375 74.81042969 -64.9146875 74.37085937 -65.546875 73.91796875 C-74.70224381 66.88940021 -81.17954051 54.60902197 -82.6875 43.25 C-83.81488708 28.15040579 -80.15820143 15.40229843 -70.5703125 3.65625 C-51.03815272 -17.60498622 -22.08366204 -17.33396089 0 0 Z M-39.6875 -2.75 C-42.93014306 2.70794407 -45.6875 9.90776557 -45.6875 16.25 C-46.3475 16.25 -47.0075 16.25 -47.6875 16.25 C-47.914375 15.693125 -48.14125 15.13625 -48.375 14.5625 C-50.29522363 11.17924884 -51.40920068 9.51959184 -54.6875 7.25 C-59.38215239 6.81836908 -63.98660109 6.9637477 -68.6875 7.25 C-70.39754221 15.21793862 -70.39754221 15.21793862 -69.6875 23.25 C-67.39267632 26.45777342 -64.90297807 29.09998631 -62.0703125 31.83984375 C-59.96750853 33.96677825 -58.7922944 35.51341158 -57.6875 38.25 C-58.40035156 38.19457031 -59.11320312 38.13914063 -59.84765625 38.08203125 C-63.0921984 38.06019718 -65.58774018 38.25409323 -68.6875 39.25 C-71.86987377 42.50190462 -74.07453609 45.9949049 -75.6875 50.25 C-75.5493234 52.96911807 -74.97212697 53.93342511 -73.15625 55.953125 C-68.86969765 59.32113042 -65.77835403 61.03680843 -60.2734375 60.66015625 C-55.00743875 59.82491476 -49.84541011 58.58930278 -44.6875 57.25 C-45.4609375 59.0134375 -45.4609375 59.0134375 -46.25 60.8125 C-47.80427164 65.04398594 -47.95129245 67.82672642 -46.6875 72.25 C-45.18635417 75.0406547 -43.51067589 77.65987927 -41.6875 80.25 C-36.53220848 79.73447085 -31.6891741 78.6531331 -27.6875 75.25 C-25.76383624 71.73082689 -24.69849588 68.11838952 -23.6875 64.25 C-23.46320313 63.42628906 -23.23890625 62.60257812 -23.0078125 61.75390625 C-22.532632 59.92804145 -22.10412836 58.09010858 -21.6875 56.25 C-21.0275 56.25 -20.3675 56.25 -19.6875 56.25 C-19.44 56.806875 -19.1925 57.36375 -18.9375 57.9375 C-17.37958376 60.81964505 -16.03758423 62.93043635 -13.6875 65.25 C-10.87510674 65.62398847 -8.71157845 65.73293015 -5.9375 65.5625 C-5.24011719 65.53994141 -4.54273438 65.51738281 -3.82421875 65.49414062 C-2.11105065 65.43547048 -0.39899377 65.34579256 1.3125 65.25 C2.64564616 60.35959749 4.00470405 55.34210471 3.3125 50.25 C1.15282501 46.72280881 -1.18237495 44.29446426 -4.234375 41.51953125 C-6.47051016 39.45075016 -7.58419692 38.04033046 -8.6875 35.25 C-8.04683594 35.23324219 -7.40617187 35.21648437 -6.74609375 35.19921875 C-2.24547567 34.74982768 0.4245501 34.21015343 3.5703125 30.80859375 C7.10707584 25.86235627 7.10707584 25.86235627 8.21484375 20.1015625 C7.06439112 17.74089346 5.77157283 16.59322942 3.6875 15 C3.03523438 14.47921875 2.38296875 13.9584375 1.7109375 13.421875 C-3.75722878 10.75013252 -9.92906341 12.50907957 -15.625 13.75 C-16.30884766 13.89308594 -16.99269531 14.03617188 -17.69726562 14.18359375 C-19.36199514 14.53283771 -21.02494875 14.89052946 -22.6875 15.25 C-22.171875 14.074375 -21.65625 12.89875 -21.125 11.6875 C-19.57072836 7.45601406 -19.42370755 4.67327358 -20.6875 0.25 C-22.0639175 -2.65122202 -23.44959481 -5.42764555 -25.6875 -7.75 C-31.39150468 -7.75 -35.34032161 -6.53669313 -39.6875 -2.75 Z " fill="#34599E" transform="translate(324.6875,35.75)"/>
<path d="M0 0 C5.12833943 -0.17683929 9.27800468 -0.25834559 14 2 C14.93640864 3.06631504 15.85190896 4.15121823 16.75 5.25 C18.17027024 6.92467675 18.17027024 6.92467675 20 8 C22.65942649 7.93731991 24.90904753 7.36573293 27.47265625 6.66796875 C32.20101182 5.41827972 36.37096629 5.22089692 40.875 7.375 C44.9141745 10.4637805 44.9141745 10.4637805 45.44140625 13.7578125 C45.65316342 19.64602806 45.80381957 23.97633049 41.875 28.625 C35.71182933 34.53915367 29.51874029 35.98368818 21.25 36.5625 C20.07953125 36.64628906 18.9090625 36.73007813 17.703125 36.81640625 C16.81109375 36.87699219 15.9190625 36.93757813 15 37 C15.474375 37.598125 15.94875 38.19625 16.4375 38.8125 C19.27498745 42.78498243 19.76774091 47.23817843 19 52 C18.53464844 52.58910156 18.06929688 53.17820313 17.58984375 53.78515625 C15.42888848 56.7956271 14.94749015 59.92601174 14.3125 63.5 C14.11817383 64.49580078 14.11817383 64.49580078 13.91992188 65.51171875 C13.30744493 68.75881874 13 71.68043946 13 75 C15.70860665 75.05429278 18.41610901 75.09381211 21.125 75.125 C21.88554687 75.14175781 22.64609375 75.15851563 23.4296875 75.17578125 C28.03270731 75.21546246 31.66464004 74.75907577 36 73 C35.44777619 68.86936591 34.14964558 66.39984079 31.6875 63.0625 C31.06101562 62.19625 30.43453125 61.33 29.7890625 60.4375 C28.90347656 59.2309375 28.90347656 59.2309375 28 58 C24 52.45086705 24 52.45086705 24 49 C28.99986525 49.36165391 31.31211358 51.89691046 34.4375 55.5 C34.91541992 56.04027832 35.39333984 56.58055664 35.88574219 57.13720703 C45.76213507 68.47863171 45.76213507 68.47863171 46.3125 74.3125 C44.84829309 77.31063795 43.40416825 78.71311397 40.40625 80.1875 C31.90954725 83.05651651 18.32578881 85.47814407 9.7265625 82.109375 C8 81 8 81 7 79 C7.08910158 76.44192238 7.23294246 73.9237399 7.4375 71.375 C7.48970703 70.66859375 7.54191406 69.9621875 7.59570312 69.234375 C7.72541207 67.48920013 7.86204954 65.74454275 8 64 C4.72661586 66.1822561 4.61110582 66.53429021 3.625 70.0625 C2.89453125 72.22265625 2.89453125 72.22265625 2 74 C-0.6875 75 -0.6875 75 -3 75 C-4.125 73.375 -4.125 73.375 -5 71 C-4.125 67.75 -4.125 67.75 -3 65 C-4.3921875 64.5359375 -4.3921875 64.5359375 -5.8125 64.0625 C-9.73032446 61.52743711 -10.46495128 59.65889975 -11.65625 55.26953125 C-12.50441807 49.66969431 -9.34247971 45.73214423 -6.21875 41.41796875 C-5 40 -5 40 -3 39 C-2.53476937 37.10466658 -2.53476937 37.10466658 -2.375 34.9375 C-2.189375 32.9884375 -2.189375 32.9884375 -2 31 C-4.66713239 33.30952805 -5.62854487 35.26333268 -6.625 38.625 C-7.91666667 42.91666667 -7.91666667 42.91666667 -9 44 C-14.52941176 44.23529412 -14.52941176 44.23529412 -17 43 C-17.2475 43.928125 -17.495 44.85625 -17.75 45.8125 C-19.08016166 49.20441223 -19.75139995 50.42210855 -23 52 C-25.5625 52.125 -25.5625 52.125 -28 51 C-29.8125 47.4375 -29.8125 47.4375 -31 44 C-31.66 47.63 -32.32 51.26 -33 55 C-32.67 55 -32.34 55 -32 55 C-31.94607603 57.77109307 -31.90636545 60.54113818 -31.875 63.3125 C-31.85824219 64.09818359 -31.84148437 64.88386719 -31.82421875 65.69335938 C-31.81777344 66.45068359 -31.81132812 67.20800781 -31.8046875 67.98828125 C-31.79421387 68.68477783 -31.78374023 69.38127441 -31.77294922 70.09887695 C-32 72 -32 72 -34 75 C-35.65 74.67 -37.3 74.34 -39 74 C-38.29713171 66.63161438 -37.46743009 59.28367609 -36.5625 51.9375 C-36.37977539 50.40125977 -36.37977539 50.40125977 -36.19335938 48.83398438 C-35.44726899 42.7840805 -34.42483966 36.9275797 -33 31 C-31.1875 30.375 -31.1875 30.375 -29 30 C-26 32 -26 32 -25.3046875 34.09375 C-25.09199219 35.28484375 -25.09199219 35.28484375 -24.875 36.5 C-24.26373364 39.85719457 -24.26373364 39.85719457 -23 43 C-22.6787299 35.75357438 -22.80736276 30.51830102 -26 24 C-26.1875 21.0625 -26.1875 21.0625 -26 19 C-31.9775551 22.15482075 -34.96403463 26.78208871 -38.4375 32.4375 C-41.0557559 36.58634232 -43.57416834 40.47900635 -47 44 C-47.99 44 -48.98 44 -50 44 C-50.42652005 38.36434168 -49.71873734 35.76585554 -46.1875 31.375 C-45.37410156 30.3540625 -44.56070312 29.333125 -43.72265625 28.28125 C-42.81665856 27.18621209 -41.90904319 26.09251102 -41 25 C-40.51901855 24.4121875 -40.03803711 23.824375 -39.54248047 23.21875 C-30.7876075 12.52507167 -30.7876075 12.52507167 -27 10 C-26.71125 9.34 -26.4225 8.68 -26.125 8 C-25 6 -25 6 -22.6875 4.75 C-19.98166314 3.99488274 -17.79292118 3.8404045 -15 4 C-14.63578275 9.46325879 -14.63578275 9.46325879 -16.1875 11.75 C-18 13 -18 13 -23 15 C-21.02 19.62 -19.04 24.24 -17 29 C-14.68607269 25.91476358 -13.25060957 23.59840919 -11.6875 20.1875 C-9.23158394 15.15659316 -6.1846196 9.5923098 -1 7 C-0.59270772 4.67843403 -0.25561323 2.3431213 0 0 Z M-1.5703125 11.390625 C-2.08335937 12.00421875 -2.59640625 12.6178125 -3.125 13.25 C-3.64320313 13.85328125 -4.16140625 14.4565625 -4.6953125 15.078125 C-6.08354214 17.12306207 -6.67756799 18.55733326 -7 21 C-6.67 21.99 -6.34 22.98 -6 24 C-2.57279898 22.49203155 0.30913432 20.41559898 3.31640625 18.21875 C4.85087948 17.10794803 6.42382152 16.05078566 8 15 C5.68767578 12.43750025 5.68767578 12.43750025 3 10 C0.0247287 9.6685122 0.0247287 9.6685122 -1.5703125 11.390625 Z M22 15 C20.83299725 17.02089546 20.83299725 17.02089546 20 19 C19.40832031 18.97679687 18.81664062 18.95359375 18.20703125 18.9296875 C11.88042556 18.78519732 8.09537511 19.09511354 3.25 23.5 C1.00138505 25.77562241 1.00138505 25.77562241 0 28 C1.19625 28.4125 2.3925 28.825 3.625 29.25 C6.69351398 30.3550942 8.28624361 31.23646211 10.875 33.375 C14.40080281 35.20841746 15.05553534 35.13701194 18.75 34.1875 C26.52922039 31.36723883 34.40097212 26.68883229 38 19 C38.33594133 15.74822148 38.33594133 15.74822148 38 13 C29.76899732 12.6173574 29.76899732 12.6173574 22 15 Z M-1 42 C-1.66 42.66 -2.32 43.32 -3 44 C-3 44.99 -3 45.98 -3 47 C-1.35 46.67 0.3 46.34 2 46 C1.01 44.68 0.02 43.36 -1 42 Z " fill="#174994" transform="translate(369,182)"/>
<path d="M0 0 C1.2065625 0.0309375 1.2065625 0.0309375 2.4375 0.0625 C6.24671173 6.37150692 7.6371408 11.68009507 6.4375 19.0625 C4.4375 22.25 4.4375 22.25 2.4375 24.0625 C3.0975 24.454375 3.7575 24.84625 4.4375 25.25 C6.4375 27.0625 6.4375 27.0625 6.80859375 29.5 C6.4375 32.0625 6.4375 32.0625 4.72265625 33.58203125 C3.62244141 34.22205078 3.62244141 34.22205078 2.5 34.875 C-0.6471172 36.96203661 -0.6471172 36.96203661 -2.31640625 40.22265625 C-2.62921905 42.66655914 -2.62921905 42.66655914 -2.5625 46.0625 C1.6605909 40.6637501 5.33585612 35.08964918 8.82421875 29.1875 C9.35660156 28.48625 9.88898438 27.785 10.4375 27.0625 C11.4275 27.0625 12.4175 27.0625 13.4375 27.0625 C13.086875 26.175625 12.73625 25.28875 12.375 24.375 C11.41994398 21.00046874 11.46598868 19.36563848 12.4375 16.0625 C17.41056516 16.55980652 21.07549813 17.61552334 25.4375 20.0625 C25.52837891 19.12277344 25.52837891 19.12277344 25.62109375 18.1640625 C25.70488281 17.34679687 25.78867188 16.52953125 25.875 15.6875 C25.95621094 14.87539062 26.03742188 14.06328125 26.12109375 13.2265625 C26.4375 11.0625 26.4375 11.0625 27.4375 9.0625 C31.23135021 9.27929144 32.3811203 10.0061203 35.125 12.75 C39.24986026 17.73476598 39.69506394 23.29496187 39.625 29.5625 C39.61855469 30.8309375 39.61210937 32.099375 39.60546875 33.40625 C39.45356235 36.7128637 39.06368134 39.81637592 38.4375 43.0625 C39.406875 42.340625 40.37625 41.61875 41.375 40.875 C41.92027344 40.46894531 42.46554688 40.06289062 43.02734375 39.64453125 C46.15461378 36.13609812 45.52587054 31.32114289 45.4375 26.875 C45.32717972 21.28314057 45.32717972 21.28314057 46.4375 19.0625 C47.9225 19.5575 47.9225 19.5575 49.4375 20.0625 C50.60546875 22.57421875 50.60546875 22.57421875 51.625 25.75 C51.96917969 26.78511719 52.31335938 27.82023437 52.66796875 28.88671875 C53.4520383 32.12249818 53.73233466 34.74911996 53.4375 38.0625 C51.01709659 40.98122175 48.22863151 43.23377217 45.3125 45.625 C41.54903568 48.81576323 39.35442082 51.2064665 38.4375 56.0625 C38.36729258 58.17732293 38.35316027 60.29428098 38.375 62.41015625 C38.38660156 64.27897461 38.38660156 64.27897461 38.3984375 66.18554688 C38.42420806 68.78450791 38.45024396 71.38346633 38.4765625 73.98242188 C38.60827633 95.35299026 38.60827633 95.35299026 34.4375 102.0625 C33.4475 102.0625 32.4575 102.0625 31.4375 102.0625 C26.47519867 89.43118752 26.17039171 75.48599026 25.4375 62.0625 C24.839375 62.38734375 24.24125 62.7121875 23.625 63.046875 C20.11168671 64.67805617 16.93339037 64.48989725 13.25 63.4375 C10.43625652 61.30293598 9.59031158 59.39958614 8.4375 56.0625 C8.37019317 51.51087583 9.35308616 47.23723063 10.5625 42.875 C11.43098403 39.09089099 11.36861269 36.78695076 10.4375 33.0625 C10.14617187 33.60777344 9.85484375 34.15304688 9.5546875 34.71484375 C6.47366431 40.38276377 3.08079193 45.74179801 -0.5625 51.0625 C-2.62973714 54.16335571 -2.80747423 54.79181681 -2.7578125 58.29296875 C-2.74814453 59.49663086 -2.74814453 59.49663086 -2.73828125 60.72460938 C-2.72152344 61.55798828 -2.70476562 62.39136719 -2.6875 63.25 C-2.67847656 64.09498047 -2.66945312 64.93996094 -2.66015625 65.81054688 C-2.63660703 67.89465243 -2.60073647 69.97861217 -2.5625 72.0625 C-9.265625 73.2578125 -9.265625 73.2578125 -11.9375 71.5 C-13.83587672 68.65243491 -14.25505622 66.44438161 -14.5625 63.0625 C-15.2225 64.0525 -15.8825 65.0425 -16.5625 66.0625 C-18.9453125 66.35546875 -18.9453125 66.35546875 -21.6875 66.25 C-23.05261719 66.20939453 -23.05261719 66.20939453 -24.4453125 66.16796875 C-25.14398438 66.13316406 -25.84265625 66.09835938 -26.5625 66.0625 C-26.5625 65.4025 -26.5625 64.7425 -26.5625 64.0625 C-27.2225 64.0625 -27.8825 64.0625 -28.5625 64.0625 C-28.5625 62.0825 -28.5625 60.1025 -28.5625 58.0625 C-27.6653125 57.7221875 -27.6653125 57.7221875 -26.75 57.375 C-23.99898112 55.72438867 -23.03765363 53.8652919 -21.5625 51.0625 C-22.32175781 51.16949219 -23.08101562 51.27648437 -23.86328125 51.38671875 C-24.85714844 51.50660156 -25.85101563 51.62648437 -26.875 51.75 C-27.86113281 51.87761719 -28.84726563 52.00523437 -29.86328125 52.13671875 C-32.5625 52.0625 -32.5625 52.0625 -34.48046875 50.83203125 C-35.5625 49.0625 -35.5625 49.0625 -35.25 46.875 C-35.023125 46.276875 -34.79625 45.67875 -34.5625 45.0625 C-33.94503906 44.97613281 -33.32757813 44.88976562 -32.69140625 44.80078125 C-26.92752016 43.84452009 -22.53359491 42.25236382 -17.54296875 39.22265625 C-15.5625 38.0625 -15.5625 38.0625 -12.5625 37 C-10.35065064 36.24542584 -10.35065064 36.24542584 -9.75 33.9375 C-9.6571875 33.009375 -9.6571875 33.009375 -9.5625 32.0625 C-13.40717546 32.42865957 -15.49054963 33.01453309 -18.75 35.1875 C-20.1421875 36.115625 -20.1421875 36.115625 -21.5625 37.0625 C-22.5525 36.7325 -23.5425 36.4025 -24.5625 36.0625 C-22.51884025 32.48450381 -20.25900684 29.35235275 -17.625 26.1875 C-15.24403784 23.26144577 -13.06308622 20.43493647 -11.25 17.125 C-9.5625 14.0625 -9.5625 14.0625 -8.05859375 12.69140625 C-6.12021624 10.58095345 -5.66839031 8.69239425 -4.9375 5.9375 C-3.35904142 0.08192784 -3.35904142 0.08192784 0 0 Z M19.4375 32.0625 C17.08073771 39.13278687 17.29884234 46.682831 17.4375 54.0625 C19.7806213 53.80688677 22.11593403 53.46979228 24.4375 53.0625 C25.57695516 50.78358967 25.56644214 49.49467896 25.5703125 46.96484375 C25.57160156 46.16369141 25.57289063 45.36253906 25.57421875 44.53710938 C25.57035156 43.69986328 25.56648438 42.86261719 25.5625 42 C25.56636719 41.15888672 25.57023437 40.31777344 25.57421875 39.45117188 C25.97353884 35.4382913 25.97353884 35.4382913 24.4375 32.0625 C22.77132885 32.02186168 21.10361905 32.019779 19.4375 32.0625 Z " fill="#174994" transform="translate(182.5625,176.9375)"/>
<path d="M0 0 C6.76075208 -0.33555203 13.03577849 -0.5785329 19 3 C23.89112813 7.46581264 24.98598037 11.72801158 26 18 C27.2065625 18.03738281 28.413125 18.07476562 29.65625 18.11328125 C31.27086178 18.17899219 32.88544378 18.24543771 34.5 18.3125 C35.29148438 18.33505859 36.08296875 18.35761719 36.8984375 18.38085938 C44.75972192 18.73526154 51.02367454 20.58395505 57 26 C56.71915428 30.02545534 56.21634296 31.74482626 53.5625 34.875 C51 37 51 37 49 37 C48.773125 37.5775 48.54625 38.155 48.3125 38.75 C45.49612763 43.57806692 40.80032329 45.7257419 35.9296875 48.05078125 C33.80280817 49.06124181 33.80280817 49.06124181 31.125 50.75 C29 52 29 52 27 52 C26.67 53.32 26.34 54.64 26 56 C24.68 56 23.36 56 22 56 C20.43118197 63.01765924 19.85679473 69.77546224 19.9375 76.9375 C20.01027167 84.05111088 19.95870944 91.14030394 19.6875 98.25 C19.66486084 99.11874756 19.64222168 99.98749512 19.61889648 100.88256836 C19.38868492 106.26972862 18.43114862 110.1768097 16 115 C13.73828125 114.95703125 13.73828125 114.95703125 11 114 C9.29720421 111.48038921 8.26391581 109.48403839 7.1875 106.6875 C6.88126709 105.89239014 6.57503418 105.09728027 6.25952148 104.27807617 C1.62216429 90.03799324 3.45352614 73.77401099 4 59 C3.01 59 2.02 59 1 59 C1 59.66 1 60.32 1 61 C-3.93672757 60.0320142 -6.76174896 59.0710602 -9.8671875 54.82421875 C-14.19903447 47.84845139 -15.6177324 42.21927273 -15 34 C-14.34 34 -13.68 34 -13 34 C-11.59765625 35.4609375 -11.59765625 35.4609375 -10.0625 37.375 C-8.08013383 39.83901524 -6.69300345 41.20466437 -4 43 C-1.94290404 43.24055468 -1.94290404 43.24055468 0.1875 43.125 C1.445625 43.08375 2.70375 43.0425 4 43 C4 39.7 4 36.4 4 33 C2.741875 33.66 1.48375 34.32 0.1875 35 C-2.58282374 36.45328458 -3.80389448 37 -7 37 C-6.47758914 32.89943257 -5.36499384 30.8247439 -2.5625 27.8125 C-1.63630859 26.80123047 -1.63630859 26.80123047 -0.69140625 25.76953125 C0.52377066 24.49822608 1.75644225 23.24355775 3 22 C2.84377796 18.98756739 2.57726295 16.10773682 2.1875 13.125 C2.09146484 12.30902344 1.99542969 11.49304688 1.89648438 10.65234375 C1.45568714 7.02538128 0.94220768 3.53489643 0 0 Z M23 28 C22.34 31.96 21.68 35.92 21 40 C21.99 40.495 21.99 40.495 23 41 C25.03144641 40.06553465 27.03533587 39.06775224 29 38 C28.34 37.67 27.68 37.34 27 37 C27 36.34 27 35.68 27 35 C27.598125 34.773125 28.19625 34.54625 28.8125 34.3125 C31.56351888 32.66188867 32.52484637 30.8027919 34 28 C30.37 28 26.74 28 23 28 Z " fill="#174994" transform="translate(17,173)"/>
<path d="M0 0 C5.20235359 2.12070465 6.7755736 6.06918815 9 11 C10.15285213 14.29843803 11.1311204 17.6163144 12 21 C12.99 18.69 13.98 16.38 15 14 C15.99 14 16.98 14 18 14 C18.66 12.68 19.32 11.36 20 10 C22.375 10.25 22.375 10.25 25 11 C26.3125 13.0625 26.3125 13.0625 27 15 C27.66 15 28.32 15 29 15 C30.28766809 18.57685579 31.09066956 21.25953194 30.625 25.0625 C28.30060001 29.26429998 24.95538588 31.3996275 21 34 C20.01 34.66 19.02 35.32 18 36 C18 36.66 18 37.32 18 38 C18.5775 38.391875 19.155 38.78375 19.75 39.1875 C22.24427094 41.19677381 23.36728102 43.30823107 24.87109375 46.09765625 C27.41851958 50.39037728 30.71240496 53.98831818 34.625 57.0625 C37 59 37 59 38.8125 62.25 C39.8953125 63.61125 39.8953125 63.61125 41 65 C44.2125647 65.25265078 44.2125647 65.25265078 46.515625 65.01953125 C53.41759885 64.96527045 60.69577027 67.30988342 67 70 C66.505 71.485 66.505 71.485 66 73 C63.32920881 74.06095724 60.82497603 74.8849134 58.0625 75.625 C57.26432861 75.8415625 56.46615723 76.058125 55.64379883 76.28125 C49.85102711 77.75027106 44.14895626 78.61810097 38.1875 79 C37.44185791 79.05365723 36.69621582 79.10731445 35.92797852 79.16259766 C31.37227767 79.34909747 28.620736 78.79084457 25 76 C22.7997223 73.73096362 21.25817694 71.63360925 20.0625 68.69921875 C16.73589325 60.63953549 11.71593663 57.71644795 4 54 C3.57460938 54.91265625 3.57460938 54.91265625 3.140625 55.84375 C0.07248422 61.64379695 -5.85858821 65.95286274 -12 68 C-15.68382769 68.13156527 -18.49053585 68.16982138 -22 67 C-22 66.34 -22 65.68 -22 65 C-22.598125 64.71125 -23.19625 64.4225 -23.8125 64.125 C-26 63 -26 63 -29 61 C-29 59.68 -29 58.36 -29 57 C-27.97519531 56.68546875 -26.95039063 56.3709375 -25.89453125 56.046875 C-24.53367287 55.61515441 -23.17300573 55.18283066 -21.8125 54.75 C-21.13896484 54.54503906 -20.46542969 54.34007812 -19.77148438 54.12890625 C-14.94113914 52.57377071 -10.50028422 50.7358124 -7.9375 46.0625 C-8.03276421 42.9187812 -10.05686952 41.40033765 -12 39 C-13.35064935 33.7012987 -13.35064935 33.7012987 -12 31 C-9.74042735 30.15542392 -7.450698 29.53109494 -5.12890625 28.87890625 C-2.6574796 28.09008134 -2.6574796 28.09008134 -1 25 C-0.41260022 20.13667537 -0.74600695 15.39821664 -2.0625 10.6875 C-2.96247698 7.14759056 -3.19803088 5.39442082 -2 2 C-1.34 1.34 -0.68 0.68 0 0 Z " fill="#174994" transform="translate(445,186)"/>
<path d="M0 0 C0 0.99 0 1.98 0 3 C-1.6171875 4.22338867 -1.6171875 4.22338867 -3.875 5.41796875 C-5.10126099 6.08735474 -5.10126099 6.08735474 -6.35229492 6.77026367 C-7.2260376 7.23795166 -8.09978027 7.70563965 -9 8.1875 C-15.99604895 12.05953929 -21.81860176 15.81135624 -27 22 C-26.44127197 21.87882812 -25.88254395 21.75765625 -25.30688477 21.6328125 C-22.72735852 21.079049 -20.14505087 20.53947428 -17.5625 20 C-16.24475586 19.71382812 -16.24475586 19.71382812 -14.90039062 19.421875 C-5.37625475 17.45378788 3.4982603 16.91167364 12.5 21.1875 C14 23 14 23 14.625 26.25 C13.7934097 31.23954183 11.64003718 33.59345673 8 37 C5.13053766 39.01170172 2.12870072 40.61638301 -1 42.1875 C-1.8350708 42.61675781 -2.6701416 43.04601562 -3.53051758 43.48828125 C-10.51444504 46.97389656 -17.37471042 49.28106185 -25 51 C-26.62562217 51.41423261 -28.25073698 51.83046959 -29.875 52.25 C-30.90625 52.4975 -31.9375 52.745 -33 53 C-32.38125 53.53625 -31.7625 54.0725 -31.125 54.625 C-29 57 -29 57 -28.1875 60.125 C-27.795625 61.07375 -27.40375 62.0225 -27 63 C-23.58880932 64.33176975 -23.58880932 64.33176975 -20 65 C-19.01 65.66 -18.02 66.32 -17 67 C-17 67.99 -17 68.98 -17 70 C-16.34 70 -15.68 70 -15 70 C-13.61449803 72.77100394 -13.8122533 74.9334706 -14 78 C-16.40436026 81.60654039 -17.94679607 81.85452932 -22 83 C-22.17015625 84.03640625 -22.3403125 85.0728125 -22.515625 86.140625 C-22.75958686 87.5105647 -23.00442479 88.88034859 -23.25 90.25 C-23.35957031 90.93191406 -23.46914063 91.61382812 -23.58203125 92.31640625 C-24.39561803 96.72690301 -25.37439502 99.28593654 -29 102 C-33.48810505 102.79788534 -36.55153436 101.66465006 -40.40234375 99.26953125 C-42.93442583 97.25748559 -44.36646265 94.76011484 -46 92 C-47.11375 90.6696875 -47.11375 90.6696875 -48.25 89.3125 C-50 87 -50 87 -50 84 C-45.89924618 85.96454718 -42.10246311 88.36375434 -38.2421875 90.7578125 C-36.13563707 92.16153582 -36.13563707 92.16153582 -34 92 C-32.50178941 88.62902617 -32 86.79557881 -32 83 C-32.67546875 83.16757813 -33.3509375 83.33515625 -34.046875 83.5078125 C-34.93890625 83.71148437 -35.8309375 83.91515625 -36.75 84.125 C-38.07257812 84.43824219 -38.07257812 84.43824219 -39.421875 84.7578125 C-42.43475673 85.04084078 -43.59760382 84.82791014 -46 83 C-47.91467367 79.46241245 -48.29602465 76.36203431 -48.3125 72.375 C-48.32925781 71.43398437 -48.34601562 70.49296875 -48.36328125 69.5234375 C-48 67 -48 67 -46.703125 65.1796875 C-43.92247789 63.25364294 -41.26948861 63.76221901 -38 64 C-37.01 64.495 -37.01 64.495 -36 65 C-37.93726652 60.41173718 -39.48864333 58.19471406 -44 56 C-43.4375 53.6875 -43.4375 53.6875 -42 51 C-37.40221227 48.68693293 -33.36018194 47.58133959 -28.25 46.8125 C-15.47114375 44.53137782 -0.31564152 39.47585007 8 29 C8.495 27.515 8.495 27.515 9 26 C-6.81025593 24.2219469 -20.18458095 26.84334014 -35 32 C-36.299375 32.39251953 -36.299375 32.39251953 -37.625 32.79296875 C-45.98855477 35.73514784 -52.03064631 43.87869366 -57.07421875 50.87890625 C-57.70972656 51.57886719 -58.34523438 52.27882812 -59 53 C-60.32 53 -61.64 53 -63 53 C-63.43082886 53.91495239 -63.43082886 53.91495239 -63.87036133 54.84838867 C-65.1817165 57.62937058 -66.49706809 60.40844426 -67.8125 63.1875 C-68.26431641 64.14720703 -68.71613281 65.10691406 -69.18164062 66.09570312 C-69.84389648 67.49272461 -69.84389648 67.49272461 -70.51953125 68.91796875 C-70.92276611 69.77156982 -71.32600098 70.6251709 -71.74145508 71.50463867 C-73.04317748 74.08560951 -74.48385652 76.539879 -76 79 C-77.32 78.67 -78.64 78.34 -80 78 C-79.0726961 63.61183305 -69.05804149 49.48842132 -58.734375 39.89453125 C-54.18266339 36.09899108 -49.41438572 33.0073042 -44.3125 30 C-38.78318761 26.70594155 -34.79254359 23.18544142 -31 18 C-33.99152582 18.77479736 -33.99152582 18.77479736 -37 20 C-37.495 21.485 -37.495 21.485 -38 23 C-43.13233982 25.8741103 -46.11321548 26.32152306 -52 25 C-51.71704102 23.09667969 -51.71704102 23.09667969 -51 21 C-48.31016909 19.8018301 -45.79462881 18.87175124 -43 18 C-41.45809884 17.47847944 -39.91774819 16.95235438 -38.37890625 16.421875 C-37.59290039 16.15157471 -36.80689453 15.88127441 -35.99707031 15.6027832 C-28.78409689 13.0762172 -22.58898517 10.70881889 -16.78515625 5.57421875 C-11.95323673 1.31324815 -6.43686652 -2.06899281 0 0 Z " fill="#174994" transform="translate(577,168)"/>
<path d="M0 0 C0 0.99 0 1.98 0 3 C-0.7734375 3.37511719 -1.546875 3.75023437 -2.34375 4.13671875 C-8.45696515 7.1403653 -14.29901153 10.27243062 -20 14 C-19.42894531 13.855625 -18.85789062 13.71125 -18.26953125 13.5625 C-10.10004944 11.69222118 -1.31135132 10.39237747 6.6875 13.375 C9 15 9 15 11 17 C11.66366481 20.91562237 12.03899602 23.42958307 9.80859375 26.80078125 C2.91749828 33.50688087 -7.15961025 37.32692503 -16.01733398 40.78833008 C-19.63457268 42.21848817 -20.84475077 42.74458997 -22.9375 46.1875 C-23.4634375 47.5796875 -23.4634375 47.5796875 -24 49 C-22.1746875 48.7525 -22.1746875 48.7525 -20.3125 48.5 C-17.55865472 48.50490882 -16.40078025 48.65764785 -14.28515625 50.46484375 C-12.11262104 53.5039858 -10.92840458 55.7441776 -11.14453125 59.53515625 C-11.63441009 61.75899473 -12.22264988 63.86104935 -13 66 C-14.98 66.495 -14.98 66.495 -17 67 C-17.03867187 68.21236328 -17.03867187 68.21236328 -17.078125 69.44921875 C-17.32008562 74.00797676 -17.59465713 77.99629384 -19.3125 82.25 C-23.91547629 85.24728689 -28.69422356 84.71053577 -34 84 C-37.36479697 83.13338323 -40.21027997 82.09705606 -43 80 C-44.5625 76.75 -44.5625 76.75 -45 74 C-44.43152344 74.2165625 -43.86304688 74.433125 -43.27734375 74.65625 C-38.39603657 76.41645426 -34.26174562 77.63140947 -29 77 C-26.95548981 75.95625978 -26.95548981 75.95625978 -26 74 C-25.74930087 71.37429296 -25.74930087 71.37429296 -26 69 C-26.886875 69.825 -27.77375 70.65 -28.6875 71.5 C-30.83270993 73.27169102 -31.84871418 73.96758161 -34.625 74.5625 C-37.87090648 73.79373268 -39.02739714 72.67710388 -41 70 C-42.25954128 65.38168196 -42.23377375 60.75339959 -42 56 C-41.34 55.01 -40.68 54.02 -40 53 C-38.7625 52.814375 -38.7625 52.814375 -37.5 52.625 C-36.675 52.41875 -35.85 52.2125 -35 52 C-33.62533375 49.52363988 -33.62533375 49.52363988 -33 47 C-33.59167969 47.2165625 -34.18335938 47.433125 -34.79296875 47.65625 C-42.89918838 50.51260145 -42.89918838 50.51260145 -47 50 C-48 49 -48 49 -48.0625 45.4375 C-48.041875 44.303125 -48.02125 43.16875 -48 42 C-46.58521865 41.35004703 -45.16808513 40.70521278 -43.75 40.0625 C-42.56664062 39.52302734 -42.56664062 39.52302734 -41.359375 38.97265625 C-37.14606451 37.23571203 -33.99187459 36.9631167 -29.4375 37.1875 C-19.81823527 37.22235241 -12.24204237 33.26517804 -3.875 28.9375 C-3.21072998 28.5971875 -2.54645996 28.256875 -1.86206055 27.90625 C2.09150438 25.88880385 2.09150438 25.88880385 4 22 C-5.52033378 17.94504302 -12.94097591 16.92361251 -22.78515625 20.6484375 C-23.84605469 21.09445313 -24.90695312 21.54046875 -26 22 C-27.17433594 22.48726562 -28.34867187 22.97453125 -29.55859375 23.4765625 C-37.88837161 27.26037978 -43.35786464 31.74129777 -49 39 C-50.56067188 40.89733855 -52.12318122 42.79316713 -53.6875 44.6875 C-54.43 45.60660156 -55.1725 46.52570313 -55.9375 47.47265625 C-57.64667147 49.56703872 -59.3944158 51.60311079 -61.1875 53.625 C-64.07804941 56.93423624 -66.38808363 60.54962929 -68.703125 64.27734375 C-69.13109375 64.84582031 -69.5590625 65.41429687 -70 66 C-70.66 66 -71.32 66 -72 66 C-71.37229288 53.75971115 -58.17540614 43.07945067 -50 35 C-51.98 34.34 -53.96 33.68 -56 33 C-56.625 30.125 -56.625 30.125 -57 27 C-56.34 26.34 -55.68 25.68 -55 25 C-52.0625 25.125 -52.0625 25.125 -49 26 C-47.125 28.0625 -47.125 28.0625 -46 30 C-44.68 28.68 -43.36 27.36 -42 26 C-42.99 25.34 -43.98 24.68 -45 24 C-43.97101845 21.05562508 -43.31535019 20.15379386 -40.4609375 18.76171875 C-39.44257813 18.40722656 -38.42421875 18.05273438 -37.375 17.6875 C-32.33118331 15.72734375 -29.13341991 13.61948955 -25.27734375 9.91015625 C-22.29125484 7.40552936 -19.07445562 5.53690753 -15.6875 3.625 C-15.07600098 3.27912842 -14.46450195 2.93325684 -13.83447266 2.5769043 C-8.63153196 -0.30600112 -5.85984722 -1.17196944 0 0 Z " fill="#174994" transform="translate(306,176)"/>
<path d="M0 0 C13.95369627 11.9439986 23.45743602 26.95903851 26.6875 45.1875 C28.20325883 66.87644081 25.31702997 87.19230778 10.70825195 104.09619141 C-2.51090956 118.57553186 -18.96500131 128.5783464 -38.90234375 129.5 C-60.37427438 130.10946898 -79.20033835 125.20545713 -95.3125 110.1875 C-106.13128245 99.80364348 -112.78152141 87.69044595 -116.3125 73.1875 C-116.50328125 72.44242187 -116.6940625 71.69734375 -116.890625 70.9296875 C-119.98525718 50.81457831 -115.92032908 30.83518408 -104.17578125 14.15234375 C-78.8495684 -17.98056505 -33.06582479 -25.25861616 0 0 Z M-89.3125 4.1875 C-89.95574219 4.66832031 -90.59898437 5.14914063 -91.26171875 5.64453125 C-102.5652834 14.45877155 -110.33690772 29.32646785 -113.3125 43.1875 C-113.76519862 47.57077784 -113.83738012 51.90809679 -113.8125 56.3125 C-113.80605469 57.50375488 -113.79960937 58.69500977 -113.79296875 59.92236328 C-113.40320857 78.79239741 -106.18911833 93.87040992 -93.1484375 107.61328125 C-85.39980678 114.64681795 -76.2719637 119.96532057 -66.3125 123.1875 C-65.52359375 123.48398438 -64.7346875 123.78046875 -63.921875 124.0859375 C-46.57297539 129.8866432 -27.43435331 125.96570729 -11.4375 118.0625 C5.53438842 108.17471633 16.3156544 92.72291122 22 74.125 C26.40194668 56.30072412 23.85107866 37.47418205 14.34375 21.63671875 C2.95366534 4.79336243 -12.22602227 -6.70085397 -32.3125 -10.8125 C-53.37003719 -14.11066847 -72.78327695 -9.3264419 -89.3125 4.1875 Z " fill="#899BC5" transform="translate(336.3125,14.8125)"/>
<path d="M0 0 C4.80610973 3.69055546 5.86846214 7.27258708 6.79589844 13.05322266 C7.69532865 20.50578622 8.17925003 27.99189919 8.67089844 35.48071289 C8.86353965 38.41017947 9.06577768 41.33886549 9.26953125 44.26757812 C9.39769574 46.15100362 9.52531863 48.03446607 9.65234375 49.91796875 C9.74136459 51.21513069 9.74136459 51.21513069 9.83218384 52.53849792 C10.76725461 66.92528995 10.76725461 66.92528995 8.23828125 70.71875 C6.35546875 71.15234375 6.35546875 71.15234375 4.11328125 71.15625 C3.38882813 71.17558594 2.664375 71.19492187 1.91796875 71.21484375 C-0.72994529 70.72463226 -2.04292276 70.02846995 -4.328125 68.6953125 C-9.62176338 65.90765225 -14.73198377 66.38581046 -20.57421875 66.65625 C-22.62186854 66.74162183 -24.67012078 66.8138546 -26.71875 66.87109375 C-27.6156958 66.91226318 -28.5126416 66.95343262 -29.43676758 66.99584961 C-31.76171875 66.71875 -31.76171875 66.71875 -33.56518555 65.37719727 C-35.19922469 63.11234767 -34.9825446 61.4422688 -34.76171875 58.71875 C-33.85808594 58.65816406 -32.95445313 58.59757812 -32.0234375 58.53515625 C-30.84394531 58.45136719 -29.66445312 58.36757812 -28.44921875 58.28125 C-27.27746094 58.20003906 -26.10570313 58.11882812 -24.8984375 58.03515625 C-21.73580917 57.8320129 -21.73580917 57.8320129 -18.76171875 56.71875 C-23.05171875 56.05875 -27.34171875 55.39875 -31.76171875 54.71875 C-32.09171875 52.40875 -32.42171875 50.09875 -32.76171875 47.71875 C-33.75171875 47.38875 -34.74171875 47.05875 -35.76171875 46.71875 C-36.99248798 41.30336538 -36.99248798 41.30336538 -35.82421875 38.34375 C-35.47359375 37.8075 -35.12296875 37.27125 -34.76171875 36.71875 C-34.10171875 36.71875 -33.44171875 36.71875 -32.76171875 36.71875 C-33.37449487 33.75699877 -34.01544397 32.33816217 -35.76171875 29.71875 C-35.88671875 27.03125 -35.88671875 27.03125 -35.76171875 24.71875 C-31.2626436 22.96301336 -27.59006943 22.19202083 -22.76171875 22.71875 C-19.82421875 24.34375 -19.82421875 24.34375 -17.76171875 26.71875 C-17.76171875 28.71875 -17.76171875 30.71875 -17.76171875 32.71875 C-16.11350631 33.74888277 -14.44668173 34.74989628 -12.76171875 35.71875 C-12.11050448 38.89341958 -12.48352866 40.25088485 -14.13671875 43.03125 C-14.67296875 43.588125 -15.20921875 44.145 -15.76171875 44.71875 C-16.42171875 44.71875 -17.08171875 44.71875 -17.76171875 44.71875 C-17.76171875 45.37875 -17.76171875 46.03875 -17.76171875 46.71875 C-15.12171875 48.03875 -12.48171875 49.35875 -9.76171875 50.71875 C-9.76171875 52.36875 -9.76171875 54.01875 -9.76171875 55.71875 C-11.74171875 56.21375 -11.74171875 56.21375 -13.76171875 56.71875 C-12.24501511 57.51830001 -10.72309877 58.30796388 -9.19921875 59.09375 C-8.35230469 59.53460938 -7.50539063 59.97546875 -6.6328125 60.4296875 C-3.40792221 61.87759743 -0.16469668 62.77649466 3.23828125 63.71875 C2.97526989 57.77783246 2.70861763 51.8370931 2.4387207 45.89648438 C2.34757204 43.87927579 2.25738517 41.86202348 2.16821289 39.84472656 C2.03920759 36.93021566 1.90664161 34.01588417 1.7734375 31.1015625 C1.73485123 30.21260284 1.69626495 29.32364319 1.6565094 28.40774536 C1.73793827 16.3647203 1.73793827 16.3647203 -2.76171875 5.71875 C-6.86127598 3.66897139 -11.24594831 4.30496825 -15.5234375 5.47265625 C-20.83301438 7.31978054 -25.19256396 9.48690881 -29.76171875 12.71875 C-32.13671875 13.46875 -32.13671875 13.46875 -33.76171875 13.71875 C-31.71546384 7.75050652 -28.88800553 4.10818915 -23.44921875 0.90625 C-16.58522498 -2.33167563 -7.00727775 -3.25090114 0 0 Z " fill="#174994" transform="translate(128.76171875,187.28125)"/>
<path d="M0 0 C6.6315852 4.91691163 12.30498637 10.85228564 15.28125 18.69140625 C14.95125 19.35140625 14.62125 20.01140625 14.28125 20.69140625 C13.53681641 20.04171875 13.53681641 20.04171875 12.77734375 19.37890625 C9.4934939 16.68702174 7.23002786 14.834618 2.96875 14.19140625 C-1.10830232 14.7442269 -5.13646902 15.43278042 -9.16796875 16.25390625 C-11.71875 16.69140625 -11.71875 16.69140625 -15.71875 16.69140625 C-15.574375 15.84578125 -15.43 15.00015625 -15.28125 14.12890625 C-15.0028125 12.42734375 -15.0028125 12.42734375 -14.71875 10.69140625 C-14.285625 9.05171875 -14.285625 9.05171875 -13.84375 7.37890625 C-13.66721039 2.17098781 -15.92399291 -1.04392982 -18.71875 -5.30859375 C-23.3067007 -4.74908757 -27.94056488 -4.10929443 -31.71875 -1.30859375 C-33.5627653 1.7527151 -34.5943075 4.97919806 -35.65625 8.37890625 C-35.95853516 9.27158203 -36.26082031 10.16425781 -36.57226562 11.08398438 C-37.31199152 13.2796787 -38.02611124 15.48049823 -38.71875 17.69140625 C-39.37875 17.69140625 -40.03875 17.69140625 -40.71875 17.69140625 C-41.6540172 16.39209517 -42.56682259 15.07657815 -43.46875 13.75390625 C-46.0309247 10.65635177 -47.29836113 9.78007844 -51.29296875 8.9375 C-54.78473817 8.71507182 -58.22142314 8.61379567 -61.71875 8.69140625 C-46.69898926 -11.07143683 -20.16709536 -13.06277768 0 0 Z " fill="#F8F9FB" transform="translate(317.71875,34.30859375)"/>
<path d="M0 0 C2.31 0 4.62 0 7 0 C7.33 1.98 7.66 3.96 8 6 C8.78375 5.95875 9.5675 5.9175 10.375 5.875 C13 6 13 6 15 8 C15.1953125 10.8203125 15.1953125 10.8203125 15.125 14.125 C15.10695312 15.22070312 15.08890625 16.31640625 15.0703125 17.4453125 C15.03550781 18.70988281 15.03550781 18.70988281 15 20 C15.99 20 16.98 20 18 20 C18.33 16.04 18.66 12.08 19 8 C18.34 8 17.68 8 17 8 C17 7.34 17 6.68 17 6 C19.64 6 22.28 6 25 6 C25.495 12.93 25.495 12.93 26 20 C26.33 20 26.66 20 27 20 C27.33 16.04 27.66 12.08 28 8 C27.34 8 26.68 8 26 8 C26 7.34 26 6.68 26 6 C28.29141286 5.94615479 30.58318188 5.90727913 32.875 5.875 C34.78925781 5.84019531 34.78925781 5.84019531 36.7421875 5.8046875 C40 6 40 6 42 8 C42.37890625 10.75 42.37890625 10.75 42.5625 14 C42.69920211 18.15326204 42.69920211 18.15326204 44 22 C29.48 22 14.96 22 0 22 C0 14.74 0 7.48 0 0 Z M8 9 C6.74050951 10.03406673 6.74050951 10.03406673 6.90234375 12.28515625 C6.91394531 13.20167969 6.92554688 14.11820312 6.9375 15.0625 C6.94652344 15.98160156 6.95554688 16.90070313 6.96484375 17.84765625 C6.97644531 18.55792969 6.98804688 19.26820313 7 20 C7.99 20 8.98 20 10 20 C10 16.7 10 13.4 10 10 C9.34 9.67 8.68 9.34 8 9 Z M35 9 C33.74050951 10.03406673 33.74050951 10.03406673 33.90234375 12.28515625 C33.91394531 13.20167969 33.92554688 14.11820312 33.9375 15.0625 C33.94652344 15.98160156 33.95554688 16.90070313 33.96484375 17.84765625 C33.97644531 18.55792969 33.98804688 19.26820313 34 20 C34.66 20 35.32 20 36 20 C36 16.37 36 12.74 36 9 C35.67 9 35.34 9 35 9 Z " fill="#174994" transform="translate(216,299)"/>
<path d="M0 0 C9.04943365 8.1957135 14.73084469 19.630059 15.55078125 31.78125 C15.8319498 46.81636823 12.43039174 59.34423662 2.05859375 70.72265625 C-9.47520914 81.81213929 -22.14874911 85.81399801 -37.8359375 85.5625 C-47.74159005 84.75879594 -55.91245152 81.32616977 -63.6875 75.25 C-64.30109375 74.81042969 -64.9146875 74.37085937 -65.546875 73.91796875 C-74.70224381 66.88940021 -81.17954051 54.60902197 -82.6875 43.25 C-83.81488708 28.15040579 -80.15820143 15.40229843 -70.5703125 3.65625 C-51.03815272 -17.60498622 -22.08366204 -17.33396089 0 0 Z M-71.6875 7.25 C-80.12664096 17.88143177 -81.96748993 31.09745041 -80.6875 44.25 C-78.21567639 57.01183086 -71.77263617 67.08364925 -61.6875 75.25 C-52.84488143 80.57605597 -44.74325002 83.63367933 -34.4375 83.5625 C-33.5906665 83.55686035 -32.74383301 83.5512207 -31.87133789 83.54541016 C-19.1204421 83.29777234 -8.76253271 78.5076472 0.72265625 69.9375 C11.38204035 58.62336258 13.82118822 45.94599502 13.58984375 31 C13.16250757 20.18265429 7.97340462 11.37699508 0.8125 3.5 C-0.0125 2.7575 -0.8375 2.015 -1.6875 1.25 C-2.574375 0.425 -3.46125 -0.4 -4.375 -1.25 C-25.28750584 -18.29181067 -54.98143292 -12.41175587 -71.6875 7.25 Z " fill="#DADBEA" transform="translate(324.6875,35.75)"/>
<path d="M0 0 C0.33 2.31 0.66 4.62 1 7 C0.0925 7.144375 -0.815 7.28875 -1.75 7.4375 C-5.77278882 9.37153309 -6.52514186 10.75804798 -8.12109375 14.8046875 C-10.11507481 22.05391641 -11.00094895 29.56009712 -12 37 C-11.01 37.33 -10.02 37.66 -9 38 C-9.04125 39.2375 -9.0825 40.475 -9.125 41.75 C-9.14281743 45.12343298 -8.59674574 47.01940795 -7 50 C-7.375 52.25 -7.375 52.25 -8 54 C-10.64 54 -13.28 54 -16 54 C-18.4464396 48.98349752 -19.55118791 44.81418114 -19.5 39.1875 C-19.49572998 38.46046875 -19.49145996 37.7334375 -19.48706055 36.984375 C-19.11801356 24.77843916 -15.56814315 10.75430377 -7.55078125 1.2890625 C-5.17143612 -0.68873068 -2.9760487 -0.19840325 0 0 Z " fill="#174994" transform="translate(94,203)"/>
<path d="M0 0 C0.33 0 0.66 0 1 0 C0.88398438 1.02738281 0.76796875 2.05476563 0.6484375 3.11328125 C-0.15855572 11.71897431 -0.15855572 11.71897431 3.19140625 19.37109375 C5.87710763 22.25676851 5.87710763 22.25676851 8.71484375 24.765625 C10.96632939 26.96707762 11.66950029 27.93408782 12 31 C11.27554687 31.02835938 10.55109375 31.05671875 9.8046875 31.0859375 C3.70381893 31.64454512 3.70381893 31.64454512 -0.99609375 35.25390625 C-2.47560597 37.78863168 -3.76280209 40.34024003 -5 43 C-5.66 43.99 -6.32 44.98 -7 46 C-11.21369896 33.25857694 -11.12298127 22.50381142 -6 10 C-4.20771277 6.51822507 -2.31866763 3.16052234 0 0 Z " fill="#F6F6FA" transform="translate(255,43)"/>
<path d="M0 0 C4.59468061 6.89202091 4.92692825 15.95085772 4 24 C2.00918417 32.11956702 -0.49617585 39.55266314 -6 46 C-7.14954551 42.58307507 -6.70972619 40.40996083 -5.9375 36.9375 C-5.46589416 32.84659355 -5.71020225 31.42004393 -8.0859375 27.9765625 C-9.86745143 26.07253758 -11.69883252 24.21367097 -13.58203125 22.41015625 C-15.71822362 20.28086596 -16.89219019 18.75991925 -18 16 C-15.16191418 14.74790331 -13.19919676 14 -10.0625 14 C-5.56010765 12.52983107 -4.42948294 9.46095878 -2.19921875 5.4453125 C-0.91147637 2.95742498 -0.91147637 2.95742498 0 0 Z " fill="#F7F7FA" transform="translate(333,55)"/>
<path d="M0 0 C2 0 2 0 3.5078125 1.4609375 C4.30832031 2.40839844 4.30832031 2.40839844 5.125 3.375 C5.66382813 4.00148438 6.20265625 4.62796875 6.7578125 5.2734375 C8 7 8 7 8 9 C12.95 9 17.9 9 23 9 C15.52382291 18.58484242 6.98514798 23.58632436 -5 26 C-9.03025745 26.27887942 -12.97019513 26.26139275 -17 26 C-17.33 25.34 -17.66 24.68 -18 24 C-17.25234375 23.76667969 -16.5046875 23.53335938 -15.734375 23.29296875 C-9.68122045 21.11967171 -9.68122045 21.11967171 -5.484375 16.5 C-4.50048414 13.68888325 -3.72402438 10.8880528 -3 8 C-2.43873345 6.42943835 -1.85796752 4.86558066 -1.25 3.3125 C-0.8375 2.219375 -0.425 1.12625 0 0 Z " fill="#F8F8FB" transform="translate(303,92)"/>
<path d="M0 0 C6.75 3.75 6.75 3.75 9 6 C16.49199863 6.4912786 23.62865641 5.27602857 31 4 C30.42360091 6.93255675 29.80435397 9.838483 29.125 12.75 C28.51640081 17.38946632 30.42460924 20.29080574 32.87109375 24.1171875 C34 26 34 26 34 28 C22.86860309 27.27403933 14.45844986 20.92059134 7 13 C3.78686461 8.92655249 1.02949155 5.14745773 0 0 Z " fill="#F8F9FB" transform="translate(249,89)"/>
<path d="M0 0 C-3.25687259 1.73438275 -6.58939869 2.95102529 -10.0625 4.1875 C-26.78471191 10.58018415 -40.18233012 22.31561582 -47.875 38.625 C-48.64632017 40.39046616 -49.34505204 42.18813667 -50 44 C-50.39493652 45.03084717 -50.39493652 45.03084717 -50.79785156 46.08251953 C-53.31535303 53.32438485 -53.34584427 60.02106471 -53 67.625 C-52.94658447 68.8632251 -52.89316895 70.1014502 -52.83813477 71.37719727 C-51.75328022 90.70836852 -44.67557734 107.79417405 -30 121 C-19.34585018 129.20547916 -7.96158821 133.74728205 5 137 C5 137.33 5 137.66 5 138 C-11.53227744 137.59766581 -26.33610508 128.21827201 -37.57910156 116.58886719 C-53.21032677 99.10982704 -57.04775031 75.73768938 -56 53 C-53.86689786 37.14351117 -42.58796897 21.9746088 -30.5625 11.97265625 C-22.74356384 6.24628794 -10.00985475 -2.94407493 0 0 Z " fill="#A4B0D1" transform="translate(276,3)"/>
<path d="M0 0 C7.66666667 0 15.33333333 0 23 0 C24.38226016 2.76452033 24.09525387 5.0461363 24.0625 8.125 C24.05347656 9.22070312 24.04445313 10.31640625 24.03515625 11.4453125 C24.02355469 12.28835938 24.01195312 13.13140625 24 14 C24.66 14 25.32 14 26 14 C26 14.66 26 15.32 26 16 C20.39 16 14.78 16 9 16 C9.33 11.71 9.66 7.42 10 3 C9.01 3.495 9.01 3.495 8 4 C8 7.96 8 11.92 8 16 C5.36 16 2.72 16 0 16 C0 10.72 0 5.44 0 0 Z M17 3 C15.74050951 4.03406673 15.74050951 4.03406673 15.90234375 6.28515625 C15.91394531 7.20167969 15.92554688 8.11820312 15.9375 9.0625 C15.94652344 9.98160156 15.95554687 10.90070313 15.96484375 11.84765625 C15.97644531 12.55792969 15.98804688 13.26820313 16 14 C16.99 14 17.98 14 19 14 C19 10.7 19 7.4 19 4 C18.34 3.67 17.68 3.34 17 3 Z " fill="#174994" transform="translate(393,305)"/>
<path d="M0 0 C0 1.65 0 3.3 0 5 C3.63 5 7.26 5 11 5 C11.144375 5.969375 11.28875 6.93875 11.4375 7.9375 C11.67562341 10.86486773 11.67562341 10.86486773 13 12 C13.66 10.35 14.32 8.7 15 7 C14.34 7 13.68 7 13 7 C13 6.34 13 5.68 13 5 C14.98 5 16.96 5 19 5 C12.97560976 24.02439024 12.97560976 24.02439024 9 28 C6.375 28.125 6.375 28.125 4 28 C3.67 26.68 3.34 25.36 3 24 C4.65 23.67 6.3 23.34 8 23 C9.28210284 19.15369149 8.44814155 18.0108249 6.8125 14.375 C6.38582031 13.39273437 5.95914063 12.41046875 5.51953125 11.3984375 C4.09131408 8.53428146 4.09131408 8.53428146 0 8 C0 11.3 0 14.6 0 18 C0.99 17.67 1.98 17.34 3 17 C2.67 18.32 2.34 19.64 2 21 C-0.875 21.125 -0.875 21.125 -4 21 C-6 19 -6 19 -6.1953125 16.3984375 C-6.17210938 15.40070313 -6.14890625 14.40296875 -6.125 13.375 C-6.10695313 12.37210937 -6.08890625 11.36921875 -6.0703125 10.3359375 C-6.04710938 9.56507813 -6.02390625 8.79421875 -6 8 C-6.66 8 -7.32 8 -8 8 C-6.78549285 4.35647855 -4.23741046 0 0 0 Z " fill="#174994" transform="translate(123,300)"/>
<path d="M0 0 C3.20156191 0.53359365 4.64242168 1.32377386 7 3.5 C7.66 2.51 8.32 1.52 9 0.5 C11.1640625 0.20703125 11.1640625 0.20703125 13.625 0.3125 C14.44226563 0.33957031 15.25953125 0.36664063 16.1015625 0.39453125 C17.04128906 0.44673828 17.04128906 0.44673828 18 0.5 C18 3.16666667 18 5.83333333 18 8.5 C18.20625 9.11875 18.4125 9.7375 18.625 10.375 C19.11657494 13.16059131 18.5863191 14.18661798 17 16.5 C14.8359375 17.109375 14.8359375 17.109375 12.375 17.25 C11.55773437 17.30671875 10.74046875 17.3634375 9.8984375 17.421875 C9.27195312 17.44765625 8.64546875 17.4734375 8 17.5 C7.67 15.85 7.34 14.2 7 12.5 C6.29875 13.345625 5.5975 14.19125 4.875 15.0625 C2 17.5 2 17.5 -1.125 17.5625 C-4.4626405 16.32902416 -5.4814082 15.70591603 -7 12.5 C-7.52416181 8.38158581 -7.39470801 6.21351063 -5.375 2.5625 C-3 0.5 -3 0.5 0 0 Z M0 2.5 C-0.66 3.82 -1.32 5.14 -2 6.5 C-0.68 6.5 0.64 6.5 2 6.5 C1.34 5.18 0.68 3.86 0 2.5 Z M12 2.5 C12.33 3.49 12.66 4.48 13 5.5 C13.66 5.5 14.32 5.5 15 5.5 C15 4.84 15 4.18 15 3.5 C14.01 3.17 13.02 2.84 12 2.5 Z M-2 8.5 C-1.34 10.15 -0.68 11.8 0 13.5 C1.32 13.5 2.64 13.5 4 13.5 C4 12.84 4 12.18 4 11.5 C6.375 11.3125 6.375 11.3125 9 11.5 C9.99 12.985 9.99 12.985 11 14.5 C11.99 14.5 12.98 14.5 14 14.5 C14 13.84 14 13.18 14 12.5 C8.52028315 7.48664203 5.17301865 6.85719981 -2 8.5 Z " fill="#174994" transform="translate(572,304.5)"/>
<path d="M0 0 C9.9609375 -0.1953125 9.9609375 -0.1953125 13 0 C15.68092691 2.68092691 15.38670257 4.39167363 15.625 8.125 C15.69976562 9.22070312 15.77453125 10.31640625 15.8515625 11.4453125 C15.92503906 12.70988281 15.92503906 12.70988281 16 14 C16.66 14 17.32 14 18 14 C18.33 10.04 18.66 6.08 19 2 C18.34 2 17.68 2 17 2 C17 1.34 17 0.68 17 0 C19.31 0 21.62 0 24 0 C24 4.62 24 9.24 24 14 C24.66 14 25.32 14 26 14 C26 14.66 26 15.32 26 16 C17.42 16 8.84 16 0 16 C0 10.72 0 5.44 0 0 Z M8 3 C6.74050951 4.03406673 6.74050951 4.03406673 6.90234375 6.28515625 C6.91394531 7.20167969 6.92554688 8.11820312 6.9375 9.0625 C6.94652344 9.98160156 6.95554687 10.90070313 6.96484375 11.84765625 C6.97644531 12.55792969 6.98804688 13.26820313 7 14 C7.99 14 8.98 14 10 14 C10 10.7 10 7.4 10 4 C9.34 3.67 8.68 3.34 8 3 Z " fill="#174994" transform="translate(24,305)"/>
<path d="M0 0 C0.91007812 0.00902344 1.82015625 0.01804687 2.7578125 0.02734375 C3.45648438 0.03894531 4.15515625 0.05054688 4.875 0.0625 C4.875 2.7025 4.875 5.3425 4.875 8.0625 C4.215 8.0625 3.555 8.0625 2.875 8.0625 C2.6275 7.423125 2.38 6.78375 2.125 6.125 C1.05937567 3.87508459 1.05937567 3.87508459 -1.25 3.3125 C-2.178125 3.18875 -2.178125 3.18875 -3.125 3.0625 C-3.455 4.0525 -3.785 5.0425 -4.125 6.0625 C-3.49851562 6.37703125 -2.87203125 6.6915625 -2.2265625 7.015625 C-1.40929687 7.44359375 -0.59203125 7.8715625 0.25 8.3125 C1.06210937 8.73015625 1.87421875 9.1478125 2.7109375 9.578125 C5.12724081 11.23551716 5.91549402 12.32181166 6.875 15.0625 C6.80195236 18.64183452 6.55801127 20.37948873 4 22.9375 C-0.67396596 24.62012774 -5.20893833 24.29495826 -10.125 24.0625 C-10.125 21.0925 -10.125 18.1225 -10.125 15.0625 C-9.135 15.3925 -8.145 15.7225 -7.125 16.0625 C-6.4375 18.125 -6.4375 18.125 -6.125 20.0625 C-3.815 20.3925 -1.505 20.7225 0.875 21.0625 C0.67177919 19.12964605 0.67177919 19.12964605 -0.125 17.0625 C-1.90622439 15.71923249 -1.90622439 15.71923249 -4.0625 14.6875 C-7.08866438 12.91316621 -8.03387494 12.22450011 -9.8125 9.0625 C-10.20100378 5.33286368 -9.43840922 3.95426152 -7.125 1.0625 C-4.60024538 -0.19987731 -2.81299534 -0.03606404 0 0 Z " fill="#174994" transform="translate(488.125,297.9375)"/>
<path d="M0 0 C2.64 0 5.28 0 8 0 C8.02505615 0.55985596 8.0501123 1.11971191 8.07592773 1.6965332 C8.19203745 4.23541305 8.3146958 6.77393553 8.4375 9.3125 C8.47681641 10.19357422 8.51613281 11.07464844 8.55664062 11.98242188 C8.61948242 13.25375977 8.61948242 13.25375977 8.68359375 14.55078125 C8.72025146 15.33106689 8.75690918 16.11135254 8.79467773 16.9152832 C8.94125263 19.19329101 8.94125263 19.19329101 10 22 C4.74260075 22.7935697 0.17735333 23.46027914 -5 22 C-7.69469307 17.95796039 -7.53918165 14.74137511 -7 10 C-5.875 7.4375 -5.875 7.4375 -4 6 C-0.8125 5.75 -0.8125 5.75 2 6 C2 4.68 2 3.36 2 2 C1.34 1.34 0.68 0.68 0 0 Z M-1 9 C-2.0257259 13.41062136 -2.03684712 15.92630576 0 20 C0.99 19.34 1.98 18.68 3 18 C3.36297936 16.02252878 3.36297936 16.02252878 3.1875 13.875 C3.125625 12.59625 3.06375 11.3175 3 10 C1.68 9.67 0.36 9.34 -1 9 Z " fill="#174994" transform="translate(368,299)"/>
<path d="M0 0 C1.06863281 0.01804687 2.13726562 0.03609375 3.23828125 0.0546875 C4.04652344 0.07789063 4.85476562 0.10109375 5.6875 0.125 C5.6875 3.095 5.6875 6.065 5.6875 9.125 C4.98625 8.3 4.285 7.475 3.5625 6.625 C0.90122773 3.82076604 0.90122773 3.82076604 -2.625 3.8125 C-3.511875 3.915625 -4.39875 4.01875 -5.3125 4.125 C-7.5803556 8.31181033 -8.73575373 10.78998142 -7.5625 15.5 C-6.68755934 18.89593047 -6.68755934 18.89593047 -5.3125 20.125 C-0.64771915 20.54907099 1.87214006 19.81819525 5.6875 17.125 C5.6875 18.445 5.6875 19.765 5.6875 21.125 C1.15135807 24.03278329 -2.01363824 24.49677076 -7.19140625 23.7109375 C-10.24667015 22.86694195 -12.12735237 21.37843349 -14.3125 19.125 C-16.04973196 15.65053607 -15.77218351 11.92377343 -15.3125 8.125 C-13.62343912 4.68432043 -12.49418609 2.73020381 -9.0625 0.97265625 C-5.90240957 -0.00140571 -3.29993663 -0.07252608 0 0 Z " fill="#174994" transform="translate(208.3125,297.875)"/>
<path d="M0 0 C3.96 0 7.92 0 12 0 C11.34 0.66 10.68 1.32 10 2 C9.85492305 4.74485593 9.81347577 7.38480543 9.875 10.125 C9.88402344 10.87910156 9.89304687 11.63320313 9.90234375 12.41015625 C9.9259313 14.27357254 9.96180281 16.13682593 10 18 C12.39719432 18.67958603 12.39719432 18.67958603 15 19 C17.49210439 16.50789561 17.26015661 14.99639212 17.2734375 11.58984375 C17.26570313 10.90019531 17.25796875 10.21054687 17.25 9.5 C17.25773437 8.81035156 17.26546875 8.12070312 17.2734375 7.41015625 C17.3761305 3.24785614 17.3761305 3.24785614 15 0 C17.64 0 20.28 0 23 0 C22.01 1.485 22.01 1.485 21 3 C20.77942187 6.38099262 20.6820248 9.72091021 20.69726562 13.10742188 C20.58759584 16.92463809 20.33096302 18.64789985 17.67578125 21.47265625 C14.14096484 23.49033978 12.01329705 23.57332815 8 23 C5.32421875 21.5078125 5.32421875 21.5078125 3 19 C2.29996202 16.12709756 2.30013979 13.32167484 2.3125 10.375 C2.62675749 4.6776573 2.62675749 4.6776573 0 0 Z " fill="#174994" transform="translate(0,299)"/>
<path d="M0 0 C2.27280919 2.07823719 3.60420039 3.90120887 4.82421875 6.72265625 C5.13037109 7.42583984 5.43652344 8.12902344 5.75195312 8.85351562 C6.06068359 9.58248047 6.36941406 10.31144531 6.6875 11.0625 C7.00783203 11.79533203 7.32816406 12.52816406 7.65820312 13.28320312 C10 18.72076559 10 18.72076559 10 21 C10.66 21 11.32 21 12 21 C12 21.66 12 22.32 12 23 C8.37 23 4.74 23 1 23 C1.33 21.02 1.66 19.04 2 17 C-0.31 17.33 -2.62 17.66 -5 18 C-4.67 19.65 -4.34 21.3 -4 23 C-6.64 23 -9.28 23 -12 23 C-11.42765625 22.01902344 -10.8553125 21.03804688 -10.265625 20.02734375 C-7.93491491 15.94860109 -5.83027905 11.77313889 -3.75 7.5625 C-3.38648438 6.83095703 -3.02296875 6.09941406 -2.6484375 5.34570312 C-1.76376783 3.56472339 -0.88161708 1.78249279 0 0 Z M-2 10 C-2.66 11.65 -3.32 13.3 -4 15 C-2.68 15 -1.36 15 0 15 C-0.33 13.35 -0.66 11.7 -1 10 C-1.33 10 -1.66 10 -2 10 Z " fill="#174994" transform="translate(318,298)"/>
<path d="M0 0 C4.65909091 4.31818182 4.65909091 4.31818182 6 7 C5.50118051 12.23760464 5.50118051 12.23760464 4 15 C1.13792106 17.11852853 -1.43435661 18.01742171 -5 18 C-7.85960705 16.44541362 -9.89213786 14.46030211 -12 12 C-11.73225734 8.80716878 -11.29513655 5.9453912 -10 3 C-6.96141795 0.91419368 -3.67515526 0 0 0 Z " fill="#EFF0F6" transform="translate(294,63)"/>
<path d="M0 0 C9.9609375 -0.1953125 9.9609375 -0.1953125 13 0 C15 2 15 2 15.1953125 4.8203125 C15.16050781 6.45613281 15.16050781 6.45613281 15.125 8.125 C15.10695313 9.22070312 15.08890625 10.31640625 15.0703125 11.4453125 C15.04710937 12.28835938 15.02390625 13.13140625 15 14 C15.66 14 16.32 14 17 14 C17 14.66 17 15.32 17 16 C11.39 16 5.78 16 0 16 C0 10.72 0 5.44 0 0 Z M8 3 C6.74050951 4.03406673 6.74050951 4.03406673 6.90234375 6.28515625 C6.91394531 7.20167969 6.92554688 8.11820312 6.9375 9.0625 C6.94652344 9.98160156 6.95554687 10.90070313 6.96484375 11.84765625 C6.97644531 12.55792969 6.98804688 13.26820313 7 14 C7.99 14 8.98 14 10 14 C10 10.7 10 7.4 10 4 C9.34 3.67 8.68 3.34 8 3 Z " fill="#174994" transform="translate(533,305)"/>
<path d="M0 0 C2 2 2 2 2.1953125 4.6015625 C2.17210937 5.59929687 2.14890625 6.59703125 2.125 7.625 C2.10695313 8.62789063 2.08890625 9.63078125 2.0703125 10.6640625 C2.03550781 11.82035156 2.03550781 11.82035156 2 13 C2.66 13 3.32 13 4 13 C3.67 13.99 3.34 14.98 3 16 C-1.29 16 -5.58 16 -10 16 C-10.33 14.35 -10.66 12.7 -11 11 C-9.5625 9.1875 -9.5625 9.1875 -8 8 C-8.99 7.34 -9.98 6.68 -11 6 C-8.71720033 -0.35922765 -6.67106369 -0.35737841 0 0 Z M-6 2 C-5.67 3.32 -5.34 4.64 -5 6 C-4.34 6 -3.68 6 -3 6 C-3.33 4.68 -3.66 3.36 -4 2 C-4.66 2 -5.32 2 -6 2 Z M-4 9 C-4.33 10.32 -4.66 11.64 -5 13 C-4.34 12.67 -3.68 12.34 -3 12 C-3.33 11.01 -3.66 10.02 -4 9 Z " fill="#174994" transform="translate(356,305)"/>
<path d="M0 0 C2.97 0 5.94 0 9 0 C8.67 0.99 8.34 1.98 8 3 C8.39397335 5.63804589 8.39397335 5.63804589 9 8 C9.66 8 10.32 8 11 8 C11 5.36 11 2.72 11 0 C12.98 0 14.96 0 17 0 C17 0.66 17 1.32 17 2 C16.34 2 15.68 2 15 2 C14.84144531 2.59425781 14.68289063 3.18851562 14.51953125 3.80078125 C12.62671778 10.52497495 10.02522772 16.71039612 7 23 C5.02 23 3.04 23 1 23 C0.67 21.68 0.34 20.36 0 19 C1.65 18.67 3.3 18.34 5 18 C6.38654158 13.84037525 4.96990009 12.30852739 3.0625 8.4375 C0 2.17995444 0 2.17995444 0 0 Z " fill="#174994" transform="translate(419,305)"/>
<path d="M0 0 C2.4375 1.4375 2.4375 1.4375 4 4 C4.60873844 7.12983445 4.65247963 9.874966 4 13 C1.9375 15.625 1.9375 15.625 -1 17 C-4.625 17.0625 -4.625 17.0625 -8 16 C-10.21278489 13.71806558 -10.96760679 12.18697986 -11.0546875 8.99609375 C-10.80726257 6.07540381 -10.31878214 3.5667238 -8.875 1 C-5.79968313 -0.640169 -3.40757541 -0.41847417 0 0 Z M-4 2 C-5.25949049 3.03406673 -5.25949049 3.03406673 -5.09765625 5.28515625 C-5.08605469 6.20167969 -5.07445312 7.11820312 -5.0625 8.0625 C-5.05347656 8.98160156 -5.04445312 9.90070313 -5.03515625 10.84765625 C-5.02355469 11.55792969 -5.01195312 12.26820313 -5 13 C-4.01 13.33 -3.02 13.66 -2 14 C-1.80426392 12.56359829 -1.61872184 11.12580496 -1.4375 9.6875 C-1.28087891 8.48673828 -1.28087891 8.48673828 -1.12109375 7.26171875 C-0.85244822 4.83182884 -0.85244822 4.83182884 -2 2 C-2.66 2 -3.32 2 -4 2 Z " fill="#174994" transform="translate(161,305)"/>
<path d="M0 0 C0.33 1.65 0.66 3.3 1 5 C-0.32 5 -1.64 5 -3 5 C-3.33 5.66 -3.66 6.32 -4 7 C-3.34 7 -2.68 7 -2 7 C-2 7.99 -2 8.98 -2 10 C-2.66 10 -3.32 10 -4 10 C-3.85915204 11.79206547 -3.71216299 13.58364917 -3.5625 15.375 C-3.48128906 16.37273437 -3.40007812 17.37046875 -3.31640625 18.3984375 C-3.15034374 20.97927613 -3.15034374 20.97927613 -2 23 C-5.3 23 -8.6 23 -12 23 C-11.67 22.34 -11.34 21.68 -11 21 C-10.7724985 19.12943209 -10.59037189 17.25314042 -10.4375 15.375 C-10.35371094 14.37210937 -10.26992187 13.36921875 -10.18359375 12.3359375 C-10.12300781 11.56507813 -10.06242188 10.79421875 -10 10 C-10.66 10 -11.32 10 -12 10 C-12 9.01 -12 8.02 -12 7 C-11.34 7 -10.68 7 -10 7 C-9.896875 6.21625 -9.79375 5.4325 -9.6875 4.625 C-8.31434423 -0.61795839 -4.65947935 -0.20708797 0 0 Z " fill="#174994" transform="translate(178,298)"/>
<path d="M0 0 C2.3125 1.125 2.3125 1.125 4 3 C5.30350265 6.82360776 5.03044606 8.8839244 4 12.8125 C2 16 2 16 -1.4375 17.0625 C-4.76216223 17.00417259 -6.35749727 16.93105969 -9 15 C-10.72973286 11.54053429 -10.47703703 7.78270206 -10 4 C-7.33663447 -0.19992257 -4.8151073 -0.70220315 0 0 Z M-4 2 C-5.12256131 4.24512262 -5.13413762 5.51456649 -5.125 8 C-5.12757813 8.70125 -5.13015625 9.4025 -5.1328125 10.125 C-5.11377236 12.09153775 -5.11377236 12.09153775 -4 14 C-3.01 13.67 -2.02 13.34 -1 13 C-0.9729957 11.54176788 -0.95360213 10.08339325 -0.9375 8.625 C-0.92589844 7.81289063 -0.91429687 7.00078125 -0.90234375 6.1640625 C-0.85533666 3.95062858 -0.85533666 3.95062858 -2 2 C-2.66 2 -3.32 2 -4 2 Z " fill="#174994" transform="translate(454,305)"/>
<path d="M0 0 C0.66 1.32 1.32 2.64 2 4 C1.195625 4.12375 0.39125 4.2475 -0.4375 4.375 C-1.7059375 4.684375 -1.7059375 4.684375 -3 5 C-3.33 5.66 -3.66 6.32 -4 7 C-3.34 7 -2.68 7 -2 7 C-2 7.99 -2 8.98 -2 10 C-2.66 10 -3.32 10 -4 10 C-4 13.63 -4 17.26 -4 21 C-3.34 21 -2.68 21 -2 21 C-2 21.66 -2 22.32 -2 23 C-5.3 23 -8.6 23 -12 23 C-11.34 22.67 -10.68 22.34 -10 22 C-9.53101037 19.1840151 -9.53101037 19.1840151 -9.375 15.9375 C-9.30023438 14.83277344 -9.22546875 13.72804688 -9.1484375 12.58984375 C-9.09945313 11.73519531 -9.05046875 10.88054687 -9 10 C-9.99 10 -10.98 10 -12 10 C-12 9.01 -12 8.02 -12 7 C-11.01 7 -10.02 7 -9 7 C-9.061875 6.21625 -9.12375 5.4325 -9.1875 4.625 C-9.125625 3.75875 -9.06375 2.8925 -9 2 C-5.5647952 -0.29013653 -4.014669 -0.17842973 0 0 Z " fill="#174994" transform="translate(471,298)"/>
<path d="M0 0 C6.06181004 5.0226426 9.36449804 12.36025036 11 20 C12.26459991 36.00676913 10.14010873 49.35500828 -0.125 62.125 C-6.65150254 69.23321255 -14.80728446 73.43809567 -24 76 C-24.66 75.34 -25.32 74.68 -26 74 C-25.23816406 73.79246094 -24.47632813 73.58492188 -23.69140625 73.37109375 C-12.10938242 69.91528389 -3.2692357 63.38672564 3.21484375 53.06640625 C9.61024575 41.0720108 10.63596048 29.06102175 7.06640625 15.97265625 C5.5584252 11.76909001 3.48825562 8.00948024 1.20703125 4.1796875 C0 2 0 2 0 0 Z " fill="#4363A4" transform="translate(327,42)"/>
<path d="M0 0 C1.875 1.1875 1.875 1.1875 3 3 C3.1875 5.6875 3.1875 5.6875 3 8 C0.36 8 -2.28 8 -5 8 C-4.34 9.32 -3.68 10.64 -3 12 C-1.02 11.67 0.96 11.34 3 11 C2.6875 12.875 2.6875 12.875 2 15 C-1 17 -1 17 -4.5625 16.8125 C-8 16 -8 16 -10 13 C-10.67888525 8.71355009 -10.72508094 5.14339686 -8.375 1.4375 C-5.31352771 -0.41549639 -3.5214898 -0.5244772 0 0 Z M-4 2 C-4.33 3.32 -4.66 4.64 -5 6 C-4.01 6 -3.02 6 -2 6 C-2.33 4.68 -2.66 3.36 -3 2 C-3.33 2 -3.66 2 -4 2 Z " fill="#174994" transform="translate(529,305)"/>
<path d="M0 0 C1.875 1.75 1.875 1.75 3 4 C3 5.32 3 6.64 3 8 C0.36 8 -2.28 8 -5 8 C-4.34 9.32 -3.68 10.64 -3 12 C-1.02 11.67 0.96 11.34 3 11 C1.63016497 14.16115776 1.0109362 14.9927092 -2 17 C-7.44444444 16.55555556 -7.44444444 16.55555556 -10 14 C-11.04988736 9.36299749 -11.39833906 6.19709335 -9 2 C-5.52957297 -0.31361802 -4.08165827 -0.51020728 0 0 Z M-4 2 C-4.33 3.32 -4.66 4.64 -5 6 C-4.01 6 -3.02 6 -2 6 C-2.33 4.68 -2.66 3.36 -3 2 C-3.33 2 -3.66 2 -4 2 Z " fill="#174994" transform="translate(271,305)"/>
<path d="M0 0 C1.875 1.75 1.875 1.75 3 4 C3 5.32 3 6.64 3 8 C0.36 8 -2.28 8 -5 8 C-4.34 9.32 -3.68 10.64 -3 12 C-1.02 11.67 0.96 11.34 3 11 C1.63016497 14.16115776 1.0109362 14.9927092 -2 17 C-7.44444444 16.55555556 -7.44444444 16.55555556 -10 14 C-11.04988736 9.36299749 -11.39833906 6.19709335 -9 2 C-5.52957297 -0.31361802 -4.08165827 -0.51020728 0 0 Z M-4 2 C-4.33 3.32 -4.66 4.64 -5 6 C-4.01 6 -3.02 6 -2 6 C-2.33 4.68 -2.66 3.36 -3 2 C-3.33 2 -3.66 2 -4 2 Z " fill="#174994" transform="translate(77,305)"/>
<path d="M0 0 C1.875 1.75 1.875 1.75 3 4 C3 5.32 3 6.64 3 8 C0.36 8 -2.28 8 -5 8 C-4.34 9.32 -3.68 10.64 -3 12 C-1.02 11.67 0.96 11.34 3 11 C2.34 12.65 1.68 14.3 1 16 C-5.22580645 17.43672457 -5.22580645 17.43672457 -8.4375 15.625 C-10.72534636 11.78141812 -10.78454363 8.36302323 -10 4 C-7.36413598 -0.1565548 -4.78694756 -0.81479958 0 0 Z M-4 2 C-4.33 3.32 -4.66 4.64 -5 6 C-4.01 6 -3.02 6 -2 6 C-2.33 4.68 -2.66 3.36 -3 2 C-3.33 2 -3.66 2 -4 2 Z " fill="#174994" transform="translate(389,305)"/>
<path d="M0 0 C2.9375 0.5 2.9375 0.5 4.75 1.6875 C6.21288036 3.92031739 6.58255955 5.87344067 6.9375 8.5 C4.2975 8.83 1.6575 9.16 -1.0625 9.5 C-0.7325 10.82 -0.4025 12.14 -0.0625 13.5 C1.2575 13.5 2.5775 13.5 3.9375 13.5 C3.9375 12.84 3.9375 12.18 3.9375 11.5 C4.9275 11.83 5.9175 12.16 6.9375 12.5 C4.8125 15.0625 4.8125 15.0625 1.9375 17.5 C-1.5876077 17.57050215 -3.26774549 17.18878725 -5.9375 14.875 C-7.53014451 11.51275048 -7.51436895 9.1795043 -7.0625 5.5 C-5.05368717 1.8686845 -4.13886419 0.67573293 0 0 Z M-0.0625 2.5 C-0.7225 3.82 -1.3825 5.14 -2.0625 6.5 C-0.7425 6.17 0.5775 5.84 1.9375 5.5 C1.2775 4.51 0.6175 3.52 -0.0625 2.5 Z " fill="#174994" transform="translate(294.0625,304.5)"/>
<path d="M0 0 C2.01822917 0.06510417 4.03645833 0.13020833 6.0546875 0.1953125 C6.0340625 1.2059375 6.0134375 2.2165625 5.9921875 3.2578125 C6.05156484 6.99858507 6.45263835 10.50776148 7.0546875 14.1953125 C4.34286538 16.79866174 3.16334937 17.18987941 -0.6953125 17.3828125 C-1.7678125 17.3209375 -2.8403125 17.2590625 -3.9453125 17.1953125 C-3.9453125 14.1953125 -3.9453125 11.1953125 -3.9453125 8.1953125 C-3.9865625 7.2053125 -4.0278125 6.2153125 -4.0703125 5.1953125 C-3.9307752 1.84641727 -3.55367097 0.35679427 0 0 Z M1.0546875 2.1953125 C1.7146875 3.5153125 2.3746875 4.8353125 3.0546875 6.1953125 C3.7146875 5.8653125 4.3746875 5.5353125 5.0546875 5.1953125 C3.7346875 4.2053125 2.4146875 3.2153125 1.0546875 2.1953125 Z M-1.9453125 10.1953125 C-1.2853125 11.5153125 -0.6253125 12.8353125 0.0546875 14.1953125 C0.7146875 14.1953125 1.3746875 14.1953125 2.0546875 14.1953125 C1.3946875 12.8753125 0.7346875 11.5553125 0.0546875 10.1953125 C-0.6053125 10.1953125 -1.2653125 10.1953125 -1.9453125 10.1953125 Z " fill="#174994" transform="translate(98.9453125,304.8046875)"/>
<path d="M0 0 C2.01822917 0.06510417 4.03645833 0.13020833 6.0546875 0.1953125 C6.0340625 1.2059375 6.0134375 2.2165625 5.9921875 3.2578125 C6.05156484 6.99858507 6.45263835 10.50776148 7.0546875 14.1953125 C4.34286538 16.79866174 3.16334937 17.18987941 -0.6953125 17.3828125 C-1.7678125 17.3209375 -2.8403125 17.2590625 -3.9453125 17.1953125 C-3.9453125 14.8853125 -3.9453125 12.5753125 -3.9453125 10.1953125 C-0.9753125 12.1753125 -0.9753125 12.1753125 2.0546875 14.1953125 C1.2503125 13.3909375 0.4459375 12.5865625 -0.3828125 11.7578125 C-3.9453125 8.1953125 -3.9453125 8.1953125 -4.1328125 5.2578125 C-3.92687974 1.89424416 -3.58087 0.3595251 0 0 Z M0.0546875 2.1953125 C0.0546875 2.8553125 0.0546875 3.5153125 0.0546875 4.1953125 C2.0346875 5.1853125 2.0346875 5.1853125 4.0546875 6.1953125 C3.3946875 4.8753125 2.7346875 3.5553125 2.0546875 2.1953125 C1.3946875 2.1953125 0.7346875 2.1953125 0.0546875 2.1953125 Z " fill="#174994" transform="translate(278.9453125,304.8046875)"/>
<path d="M0 0 C1.875 1.5 1.875 1.5 3 3 C2.34 4.32 1.68 5.64 1 7 C-2.875 5.25 -2.875 5.25 -4 3 C-4.26932521 7.65052872 -4.26932521 7.65052872 -3 12 C-1.02 11.67 0.96 11.34 3 11 C2.6875 12.875 2.6875 12.875 2 15 C-1 17 -1 17 -4.5625 16.8125 C-8 16 -8 16 -10 13 C-10.67888525 8.71355009 -10.72508094 5.14339686 -8.375 1.4375 C-5.31352771 -0.41549639 -3.5214898 -0.5244772 0 0 Z " fill="#174994" transform="translate(341,305)"/>
<path d="M0 0 C1.670625 0.2475 1.670625 0.2475 3.375 0.5 C5.375 3.5 5.375 3.5 5.375 6.5 C4.385 6.83 3.395 7.16 2.375 7.5 C1.715 7.17 1.055 6.84 0.375 6.5 C0.375 5.51 0.375 4.52 0.375 3.5 C-0.615 3.995 -0.615 3.995 -1.625 4.5 C-1.295 6.81 -0.965 9.12 -0.625 11.5 C2.42413228 12.51111093 2.42413228 12.51111093 5.375 11.5 C5.0625 13.375 5.0625 13.375 4.375 15.5 C1.375 17.5 1.375 17.5 -1.625 17.375 C-4.625 16.5 -4.625 16.5 -6.5 14.875 C-8.09264451 11.51275048 -8.07686895 9.1795043 -7.625 5.5 C-5.49142811 1.48888484 -4.5465532 0.62711079 0 0 Z " fill="#174994" transform="translate(503.625,304.5)"/>
<path d="M0 0 C1.670625 0.2475 1.670625 0.2475 3.375 0.5 C5.375 3.5 5.375 3.5 5.375 6.5 C4.385 6.83 3.395 7.16 2.375 7.5 C0.375 6.5 0.375 6.5 -0.625 3.5 C-1.43467438 6.41482778 -1.84345993 7.96113217 -0.6875 10.8125 C-0.336875 11.369375 0.01375 11.92625 0.375 12.5 C2.025 12.17 3.675 11.84 5.375 11.5 C5.0625 13.375 5.0625 13.375 4.375 15.5 C1.375 17.5 1.375 17.5 -1.625 17.375 C-4.625 16.5 -4.625 16.5 -6.5 14.875 C-8.09264451 11.51275048 -8.07686895 9.1795043 -7.625 5.5 C-5.49142811 1.48888484 -4.5465532 0.62711079 0 0 Z " fill="#174994" transform="translate(558.625,304.5)"/>
<path d="M0 0 C2.97 0 5.94 0 9 0 C9.144375 0.969375 9.28875 1.93875 9.4375 2.9375 C9.67562341 5.86486773 9.67562341 5.86486773 11 7 C11.66 5.35 12.32 3.7 13 2 C12.34 2 11.68 2 11 2 C11 1.34 11 0.68 11 0 C12.98 0 14.96 0 17 0 C15.24009216 5.91969002 12.60305395 11.41634992 10 17 C7 16 7 16 5.61328125 13.34765625 C5.18402344 12.26355469 4.75476562 11.17945313 4.3125 10.0625 C3.87550781 8.98097656 3.43851563 7.89945312 2.98828125 6.78515625 C2 4 2 4 2 2 C1.34 2 0.68 2 0 2 C0 1.34 0 0.68 0 0 Z " fill="#174994" transform="translate(49,305)"/>
<path d="M0 0 C4.29 0 8.58 0 13 0 C13 1.65 13 3.3 13 5 C11.35 5 9.7 5 8 5 C7.9729957 6.45823212 7.95360213 7.91660675 7.9375 9.375 C7.92589844 10.18710937 7.91429688 10.99921875 7.90234375 11.8359375 C7.85533666 14.04937142 7.85533666 14.04937142 9 16 C6.03 16 3.06 16 0 16 C0 10.72 0 5.44 0 0 Z " fill="#174994" transform="translate(81,305)"/>
<path d="M0 0 C2.05078125 0.03255208 4.1015625 0.06510417 6.15234375 0.09765625 C6.48234375 0.75765625 6.81234375 1.41765625 7.15234375 2.09765625 C3.71719373 2.72222898 0.66169561 3.09765625 -2.84765625 3.09765625 C-2.84765625 3.75765625 -2.84765625 4.41765625 -2.84765625 5.09765625 C-1.85765625 4.76765625 -0.86765625 4.43765625 0.15234375 4.09765625 C0.15234375 5.08765625 0.15234375 6.07765625 0.15234375 7.09765625 C0.81234375 7.42765625 1.47234375 7.75765625 2.15234375 8.09765625 C0.86269199 9.47328479 -0.47454918 10.80532018 -1.84765625 12.09765625 C-2.50765625 12.09765625 -3.16765625 12.09765625 -3.84765625 12.09765625 C-4.17765625 13.08765625 -4.50765625 14.07765625 -4.84765625 15.09765625 C-6.16765625 15.09765625 -7.48765625 15.09765625 -8.84765625 15.09765625 C-9.17765625 15.75765625 -9.50765625 16.41765625 -9.84765625 17.09765625 C-9.84765625 16.43765625 -9.84765625 15.77765625 -9.84765625 15.09765625 C-11.49765625 14.76765625 -13.14765625 14.43765625 -14.84765625 14.09765625 C-13.52765625 13.76765625 -12.20765625 13.43765625 -10.84765625 13.09765625 C-10.93015625 12.33453125 -11.01265625 11.57140625 -11.09765625 10.78515625 C-10.84765625 8.09765625 -10.84765625 8.09765625 -8.97265625 6.28515625 C-6.84765625 5.09765625 -6.84765625 5.09765625 -4.84765625 5.09765625 C-4.53828125 4.45828125 -4.22890625 3.81890625 -3.91015625 3.16015625 C-2.34607564 0.12399977 -2.34607564 0.12399977 0 0 Z " fill="#97A3CA" transform="translate(333.84765625,108.90234375)"/>
<path d="M0 0 C2.64 0 5.28 0 8 0 C8.06058594 0.98742187 8.12117187 1.97484375 8.18359375 2.9921875 C8.26738281 4.27351563 8.35117187 5.55484375 8.4375 6.875 C8.51871094 8.15117187 8.59992187 9.42734375 8.68359375 10.7421875 C8.79206027 13.88300152 8.79206027 13.88300152 10 16 C6.7 16 3.4 16 0 16 C0.33 15.34 0.66 14.68 1 14 C1.22858114 11.9625237 1.41024278 9.91959697 1.5625 7.875 C1.64628906 6.77929688 1.73007812 5.68359375 1.81640625 4.5546875 C1.87699219 3.71164062 1.93757813 2.86859375 2 2 C1.34 2 0.68 2 0 2 C0 1.34 0 0.68 0 0 Z " fill="#174994" transform="translate(509,305)"/>
<path d="M0 0 C2.31 0 4.62 0 7 0 C7.06058594 0.98742187 7.12117188 1.97484375 7.18359375 2.9921875 C7.26738281 4.27351563 7.35117188 5.55484375 7.4375 6.875 C7.51871094 8.15117187 7.59992188 9.42734375 7.68359375 10.7421875 C7.79206027 13.88300152 7.79206027 13.88300152 9 16 C6.03 16 3.06 16 0 16 C0 10.72 0 5.44 0 0 Z " fill="#174994" transform="translate(107,305)"/>
<path d="M0 0 C0.33 0.66 0.66 1.32 1 2 C1.639375 1.814375 2.27875 1.62875 2.9375 1.4375 C3.9584375 1.2209375 3.9584375 1.2209375 5 1 C5.33 1.33 5.66 1.66 6 2 C6.33 1.34 6.66 0.68 7 0 C11.06153846 5.41538462 11.06153846 5.41538462 10.75 8.375 C10.37875 9.179375 10.37875 9.179375 10 10 C8.02 10.33 6.04 10.66 4 11 C4 11.66 4 12.32 4 13 C3.34 13 2.68 13 2 13 C0.44245777 10.40624165 -0.97703944 7.85268897 -2 5 C-1.25 2 -1.25 2 0 0 Z " fill="#DADBEB" transform="translate(254,20)"/>
<path d="M0 0 C0.99 0.33 1.98 0.66 3 1 C2.67 1.66 2.34 2.32 2 3 C4.475 3.99 4.475 3.99 7 5 C6.67 6.65 6.34 8.3 6 10 C4.865625 10.268125 3.73125 10.53625 2.5625 10.8125 C1.386875 11.204375 0.21125 11.59625 -1 12 C-1.33 12.99 -1.66 13.98 -2 15 C-4 13 -4 13 -4.3125 10.5 C-4.1578125 9.2625 -4.1578125 9.2625 -4 8 C-3.01 7.34 -2.02 6.68 -1 6 C-3.6666419 4.66667905 -5.16680303 5.32897967 -8 6 C-7.67 4.68 -7.34 3.36 -7 2 C-5.02 2 -3.04 2 -1 2 C-0.67 1.34 -0.34 0.68 0 0 Z " fill="#9EA6CC" transform="translate(343,40)"/>
<path d="M0 0 C6.36 0.6 6.36 0.6 9 2.25 C10 4 10 4 9.6875 6.6875 C9.460625 7.450625 9.23375 8.21375 9 9 C5.66666667 9 2.33333333 9 -1 9 C-0.67 6.03 -0.34 3.06 0 0 Z " fill="#174994" transform="translate(117,221)"/>
<path d="M0 0 C3.29714793 0.32971479 4.6226839 0.6226839 7 3 C6.67028521 6.29714793 6.3773161 7.6226839 4 10 C0.70285207 9.67028521 -0.6226839 9.3773161 -3 7 C-2.67028521 3.70285207 -2.3773161 2.3773161 0 0 Z " fill="#2C559B" transform="translate(289,67)"/>
<path d="M0 0 C-4.75 3 -4.75 3 -7 3 C-7 3.66 -7 4.32 -7 5 C-5.68 4.67 -4.36 4.34 -3 4 C-2 6 -2 6 -2 9 C-3 11.1875 -3 11.1875 -4 13 C-5.65 13 -7.3 13 -9 13 C-10.09765625 11.2578125 -10.09765625 11.2578125 -11 9 C-10.26817713 5.99328589 -8.80739878 3.49959406 -7 1 C-2.89130435 -1.44565217 -2.89130435 -1.44565217 0 0 Z " fill="#5471AC" transform="translate(348,95)"/>
<path d="M0 0 C0.66 0 1.32 0 2 0 C0.9924289 3.11217053 -0.06612869 6.16411938 -1.2890625 9.19921875 C-5.27927065 19.61809558 -5.53652336 28.92377331 -5 40 C-5.33 40 -5.66 40 -6 40 C-6.06058594 39.2265625 -6.12117187 38.453125 -6.18359375 37.65625 C-6.26738281 36.6146875 -6.35117188 35.573125 -6.4375 34.5 C-6.52128906 33.39269531 -6.60507813 32.28539062 -6.69140625 31.14453125 C-6.94587521 27.86444184 -6.94587521 27.86444184 -7.875 24.1875 C-8.91542615 16.71534855 -4.2357513 5.95510196 0 0 Z " fill="#526CA9" transform="translate(228,36)"/>
<path d="M0 0 C2.625 0.375 2.625 0.375 4.5625 2.625 C5.625 5.375 5.625 5.375 5 7.625 C3.625 9.375 3.625 9.375 0.625 10.375 C-1.5625 9.3125 -1.5625 9.3125 -3.375 7.375 C-3.6875 4.25 -3.6875 4.25 -3.375 1.375 C-2.375 0.375 -2.375 0.375 0 0 Z " fill="#174994" transform="translate(518.375,193.625)"/>
<path d="M0 0 C0.66 0 1.32 0 2 0 C2.8971875 1.6396875 2.8971875 1.6396875 3.8125 3.3125 C5.29044697 5.91074129 6.69822933 8.04349493 9 10 C7.35 10 5.7 10 4 10 C3.67 10.66 3.34 11.32 3 12 C1.35 11.67 -0.3 11.34 -2 11 C-1.34 10.67 -0.68 10.34 0 10 C-1.3089572 6.87802522 -1.3089572 6.87802522 -4 5 C-4 4.34 -4 3.68 -4 3 C-3.01 2.67 -2.02 2.34 -1 2 C-0.67 1.34 -0.34 0.68 0 0 Z " fill="#D9DCEB" transform="translate(235,43)"/>
<path d="M0 0 C2.31 0 4.62 0 7 0 C7.66 2.64 8.32 5.28 9 8 C5.66666667 8 2.33333333 8 -1 8 C-0.67 5.36 -0.34 2.72 0 0 Z " fill="#8796C2" transform="translate(283,127)"/>
<path d="M0 0 C0.66 0 1.32 0 2 0 C2.33 0.99 2.66 1.98 3 3 C1.0625 5.6875 1.0625 5.6875 -1 8 C-0.01 8.33 0.98 8.66 2 9 C2 9.66 2 10.32 2 11 C2.66 11 3.32 11 4 11 C4.66 10.34 5.32 9.68 6 9 C6.33 9.33 6.66 9.66 7 10 C7.33 9.34 7.66 8.68 8 8 C8.99 8.33 9.98 8.66 11 9 C10.01 10.32 9.02 11.64 8 13 C8.66 13.33 9.32 13.66 10 14 C9.01 14.99 8.02 15.98 7 17 C3.7 14.03 0.4 11.06 -3 8 C-2.34 6.68 -1.68 5.36 -1 4 C-0.63215869 2.6757713 -0.28797019 1.34386088 0 0 Z " fill="#8C99C4" transform="translate(247,107)"/>
<path d="M0 0 C2.0625 0.25 2.0625 0.25 4 1 C4.33 1.66 4.66 2.32 5 3 C5.66 2.67 6.32 2.34 7 2 C7 4.64 7 7.28 7 10 C6.67 9.01 6.34 8.02 6 7 C5.01 7 4.02 7 3 7 C2.67 7.66 2.34 8.32 2 9 C0.68 8.34 -0.64 7.68 -2 7 C-2.125 4.625 -2.125 4.625 -2 2 C-1.34 1.34 -0.68 0.68 0 0 Z " fill="#6C84B7" transform="translate(267,123)"/>
<path d="M0 0 C2.25 1.9375 2.25 1.9375 4 4 C3.34 5.32 2.68 6.64 2 8 C0.68 8 -0.64 8 -2 8 C-2.33 8.66 -2.66 9.32 -3 10 C-3 9.34 -3 8.68 -3 8 C-4.65 7.67 -6.3 7.34 -8 7 C-6.68 6.67 -5.36 6.34 -4 6 C-4 4.35 -4 2.7 -4 1 C-2.25 0.25 -2.25 0.25 0 0 Z " fill="#2D549B" transform="translate(327,116)"/>
<path d="M0 0 C1.134375 0.020625 2.26875 0.04125 3.4375 0.0625 C3.1075 2.7025 2.7775 5.3425 2.4375 8.0625 C0.1275 8.3925 -2.1825 8.7225 -4.5625 9.0625 C-4.66015625 2.91015625 -4.66015625 2.91015625 -4.5625 1.0625 C-3.5625 0.0625 -3.5625 0.0625 0 0 Z " fill="#788BBC" transform="translate(297.5625,126.9375)"/>
<path d="M0 0 C0.33 1.65 0.66 3.3 1 5 C-0.98 5.99 -2.96 6.98 -5 8 C-6.5625 6.25 -6.5625 6.25 -8 4 C-7.8125 1.8125 -7.8125 1.8125 -7 0 C-4.3333581 -1.33332095 -2.83319697 -0.67102033 0 0 Z " fill="#6F86B9" transform="translate(240,92)"/>
<path d="M0 0 C3.7111906 2.69904771 4.26408297 6.7202759 5 11 C5.21526584 14.17401208 5.19231368 17.32072296 5.125 20.5 C5.11597656 21.32242188 5.10695313 22.14484375 5.09765625 22.9921875 C5.07436865 24.99492083 5.03850959 26.99750154 5 29 C4.67 29 4.34 29 4 29 C3.91435791 28.3702124 3.82871582 27.7404248 3.74047852 27.09155273 C3.34805949 24.20683572 2.95528247 21.32216755 2.5625 18.4375 C2.42779297 17.44685547 2.29308594 16.45621094 2.15429688 15.43554688 C1.45311064 10.28781382 0.74279886 5.14189894 0 0 Z " fill="#3D5DA1" transform="translate(358,49)"/>
<path d="M0 0 C-1.53944806 3.75831734 -3.8252091 5.97788832 -6.8125 8.6875 C-7.66457031 9.47511719 -8.51664062 10.26273438 -9.39453125 11.07421875 C-12.06125234 13.04527347 -13.74189639 13.65488669 -17 14 C-13.71529745 10.60580737 -10.29302848 7.38092265 -6.8125 4.1875 C-5.95269531 3.39730469 -5.09289062 2.60710937 -4.20703125 1.79296875 C-2 0 -2 0 0 0 Z " fill="#3E5FA1" transform="translate(345,119)"/>
<path d="M0 0 C-0.33 1.65 -0.66 3.3 -1 5 C-1.99 5.33 -2.98 5.66 -4 6 C-6.6875 4.0625 -6.6875 4.0625 -9 2 C-8.67 1.01 -8.34 0.02 -8 -1 C-4.71293093 -2.47351372 -2.99288606 -1.8171094 0 0 Z " fill="#5874AE" transform="translate(255,113)"/>
<path d="M0 0 C3 1 3 1 5 4 C4.55555556 9.44444444 4.55555556 9.44444444 2 12 C1.87625 11.030625 1.7525 10.06125 1.625 9.0625 C1.315625 7.5465625 1.315625 7.5465625 1 6 C0.34 5.67 -0.32 5.34 -1 5 C-0.01 4.67 0.98 4.34 2 4 C2 3.34 2 2.68 2 2 C1.401875 2.350625 0.80375 2.70125 0.1875 3.0625 C-2 4 -2 4 -5 3 C-2.6875 1.4375 -2.6875 1.4375 0 0 Z " fill="#B0B8D6" transform="translate(241,99)"/>
<path d="M0 0 C-7.23142896 4.12983705 -16.05466994 3.17226181 -24 2 C-24 1.67 -24 1.34 -24 1 C-23.04738281 0.93941406 -22.09476562 0.87882813 -21.11328125 0.81640625 C-19.23189453 0.69072266 -19.23189453 0.69072266 -17.3125 0.5625 C-16.07113281 0.48128906 -14.82976562 0.40007812 -13.55078125 0.31640625 C-10.11129044 0.07580315 -10.11129044 0.07580315 -7.21875 -0.5625 C-4.55768272 -1.08721749 -2.60511683 -0.66988719 0 0 Z " fill="#516AA8" transform="translate(312,141)"/>
<path d="M0 0 C0.66 0 1.32 0 2 0 C2 0.66 2 1.32 2 2 C2.66 2 3.32 2 4 2 C4 2.66 4 3.32 4 4 C4.66 4 5.32 4 6 4 C6 4.99 6 5.98 6 7 C5.01 7 4.02 7 3 7 C3 7.99 3 8.98 3 10 C2.34 9.67 1.68 9.34 1 9 C1 8.34 1 7.68 1 7 C-0.65 7 -2.3 7 -4 7 C-4 6.34 -4 5.68 -4 5 C-2.02 5 -0.04 5 2 5 C1.01 4.67 0.02 4.34 -1 4 C-0.67 2.68 -0.34 1.36 0 0 Z " fill="#BCC2DC" transform="translate(324,16)"/>
<path d="M0 0 C0.66 0 1.32 0 2 0 C3.0257259 4.41062136 3.03684712 6.92630576 1 11 C0.67 9.68 0.34 8.36 0 7 C-0.99 7.33 -1.98 7.66 -3 8 C-1.125 1.125 -1.125 1.125 0 0 Z " fill="#E7E8F2" transform="translate(293,9)"/>
<path d="M0 0 C-4.75 3 -4.75 3 -7 3 C-7 3.66 -7 4.32 -7 5 C-5.68 4.67 -4.36 4.34 -3 4 C-2 6 -2 6 -2 9 C-4.31 8.01 -6.62 7.02 -9 6 C-8.3125 3.625 -8.3125 3.625 -7 1 C-2.71428571 -1.35714286 -2.71428571 -1.35714286 0 0 Z " fill="#AAB0D2" transform="translate(348,95)"/>
<path d="M0 0 C0.66 0.33 1.32 0.66 2 1 C1.1875 3.9375 1.1875 3.9375 0 7 C-0.99 7.33 -1.98 7.66 -3 8 C-3.66 7.34 -4.32 6.68 -5 6 C-5.66 6 -6.32 6 -7 6 C-7 5.34 -7 4.68 -7 4 C-6.030625 3.525625 -5.06125 3.05125 -4.0625 2.5625 C-1.19522563 1.29806053 -1.19522563 1.29806053 0 0 Z " fill="#3C5EA1" transform="translate(348,94)"/>
<path d="M0 0 C-0.33 1.65 -0.66 3.3 -1 5 C-2.65 4.67 -4.3 4.34 -6 4 C-6 2.68 -6 1.36 -6 0 C-3.50907189 -1.24546405 -2.58919267 -0.7767578 0 0 Z " fill="#174994" transform="translate(517,299)"/>
<path d="M0 0 C0.33 0 0.66 0 1 0 C1.19585135 2.39541268 1.38192107 4.79092774 1.5625 7.1875 C1.61857422 7.86103516 1.67464844 8.53457031 1.73242188 9.22851562 C2.00963763 13.017131 1.96511161 16.31827794 1 20 C-1 18 -1 18 -1.13525391 16.12060547 C-1.08288574 15.37697754 -1.03051758 14.63334961 -0.9765625 13.8671875 C-0.925 13.06152344 -0.8734375 12.25585938 -0.8203125 11.42578125 C-0.75585938 10.58402344 -0.69140625 9.74226563 -0.625 8.875 C-0.56828125 8.02550781 -0.5115625 7.17601563 -0.453125 6.30078125 C-0.31149023 4.1998655 -0.15695674 2.09982666 0 0 Z " fill="#536AA9" transform="translate(361,69)"/>
<path d="M0 0 C1.9375 0.3125 1.9375 0.3125 4 1 C4.33 1.99 4.66 2.98 5 4 C4.67 4.66 4.34 5.32 4 6 C2.35 5.67 0.7 5.34 -1 5 C-0.67 3.35 -0.34 1.7 0 0 Z " fill="#174994" transform="translate(236,298)"/>
<path d="M0 0 C2.125 0.375 2.125 0.375 4 1 C3.67 2.65 3.34 4.3 3 6 C1.68 6 0.36 6 -1 6 C-1.625 4.125 -1.625 4.125 -2 2 C-1.34 1.34 -0.68 0.68 0 0 Z " fill="#174994" transform="translate(110,298)"/>
<path d="M0 0 C0.99 0.33 1.98 0.66 3 1 C1.84826645 3.46800047 0.95216435 5.04783565 -1 7 C-1.33 7.99 -1.66 8.98 -2 10 C-4 8 -4 8 -4.125 5.375 C-4.08375 4.59125 -4.0425 3.8075 -4 3 C-2.68 2.67 -1.36 2.34 0 2 C0 1.34 0 0.68 0 0 Z " fill="#DCDDEC" transform="translate(343,45)"/>
<path d="M0 0 C2.0625 0.4375 2.0625 0.4375 4 1 C4 2.32 4 3.64 4 5 C2.68 5.33 1.36 5.66 0 6 C-0.38218767 4.34385343 -0.71395102 2.67542976 -1 1 C-0.67 0.67 -0.34 0.34 0 0 Z " fill="#174994" transform="translate(44,298)"/>
<path d="M0 0 C1.64419444 2.46629166 3.15858746 4.92734642 4.625 7.5 C5.07101563 8.2734375 5.51703125 9.046875 5.9765625 9.84375 C7 12 7 12 7 15 C2.36231469 11.3561044 0.92630075 6.36905103 -1 1 C-0.67 0.67 -0.34 0.34 0 0 Z " fill="#4866A6" transform="translate(247,86)"/>
<path d="M0 0 C0.99 0.33 1.98 0.66 3 1 C1 4 1 4 -1.1640625 4.73046875 C-2.38222656 4.95669922 -2.38222656 4.95669922 -3.625 5.1875 C-4.85089844 5.42533203 -4.85089844 5.42533203 -6.1015625 5.66796875 C-7.04128906 5.83232422 -7.04128906 5.83232422 -8 6 C-7.67 4.68 -7.34 3.36 -7 2 C-5.02 2 -3.04 2 -1 2 C-0.67 1.34 -0.34 0.68 0 0 Z " fill="#E6E7F1" transform="translate(343,40)"/>
<path d="M0 0 C0.66 0 1.32 0 2 0 C1.814375 0.598125 1.62875 1.19625 1.4375 1.8125 C0.77906313 4.16408762 0.77906313 4.16408762 2 7 C1.0625 9.1875 1.0625 9.1875 0 11 C-0.99 10.67 -1.98 10.34 -3 10 C-2.67 9.01 -2.34 8.02 -2 7 C-1.34 6.67 -0.68 6.34 0 6 C-0.99 6 -1.98 6 -3 6 C-2 4 -1 2 0 0 Z " fill="#DDDEEC" transform="translate(288,8)"/>
<path d="M0 0 C1.98 0.66 3.96 1.32 6 2 C5.67 3.32 5.34 4.64 5 6 C3.68 6 2.36 6 1 6 C0.67 5.34 0.34 4.68 0 4 C-0.66 4 -1.32 4 -2 4 C-2 3.34 -2 2.68 -2 2 C-1.34 2 -0.68 2 0 2 C0 1.34 0 0.68 0 0 Z " fill="#4364A4" transform="translate(333,110)"/>
<path d="M0 0 C0.33 0 0.66 0 1 0 C1.38873828 1.95565258 1.76060833 3.91466504 2.125 5.875 C2.33382812 6.96554688 2.54265625 8.05609375 2.7578125 9.1796875 C2.83773437 10.11039063 2.91765625 11.04109375 3 12 C2.34 12.66 1.68 13.32 1 14 C-0.79217969 8.83430559 -1.12029814 5.48946087 0 0 Z " fill="#4F69A8" transform="translate(221,81)"/>
<path d="M0 0 C0.66 0 1.32 0 2 0 C0.34643078 3.58273331 -1.67980703 6.80973467 -4 10 C-4.66 10 -5.32 10 -6 10 C-4.63312778 6.01328937 -2.84804907 3.11505367 0 0 Z " fill="#4060A2" transform="translate(235,26)"/>
<path d="M0 0 C0.45375 0.61875 0.9075 1.2375 1.375 1.875 C2.97108919 4.05919833 2.97108919 4.05919833 5 6 C5.33 6.66 5.66 7.32 6 8 C4.35 8.33 2.7 8.66 1 9 C-1.09230769 4.56923077 -1.09230769 4.56923077 -0.625 1.6875 C-0.41875 1.130625 -0.2125 0.57375 0 0 Z " fill="#B2B6D5" transform="translate(253,21)"/>
<path d="M0 0 C3.69230769 0.69230769 3.69230769 0.69230769 5 2 C5.04063832 3.66617115 5.042721 5.33388095 5 7 C4.71125 6.360625 4.4225 5.72125 4.125 5.0625 C3.17176549 2.84793921 3.17176549 2.84793921 1 2 C1 3.65 1 5.3 1 7 C0.34 6.67 -0.32 6.34 -1 6 C-1.042721 4.33388095 -1.04063832 2.66617115 -1 1 C-0.67 0.67 -0.34 0.34 0 0 Z " fill="#9FA9CD" transform="translate(306,125)"/>
<path d="M0 0 C1.65 1.65 3.3 3.3 5 5 C4.01 5.33 3.02 5.66 2 6 C1.67 6.66 1.34 7.32 1 8 C1 7.34 1 6.68 1 6 C-0.65 5.67 -2.3 5.34 -4 5 C-2.68 4.67 -1.36 4.34 0 4 C0 2.68 0 1.36 0 0 Z " fill="#AFB4D4" transform="translate(323,118)"/>
<path d="M0 0 C0 0.66 0 1.32 0 2 C-0.99 2.495 -0.99 2.495 -2 3 C-2 4.65 -2 6.3 -2 8 C-3.65 6.35 -5.3 4.7 -7 3 C-3.375 0 -3.375 0 0 0 Z " fill="#5E77B0" transform="translate(243,101)"/>
<path d="M0 0 C1.98 0.495 1.98 0.495 4 1 C3.67 2.32 3.34 3.64 3 5 C1.68 4.67 0.36 4.34 -1 4 C-0.67 2.68 -0.34 1.36 0 0 Z " fill="#F1F2F7" transform="translate(292,85)"/>
<path d="M0 0 C1.98 0.495 1.98 0.495 4 1 C3.67 2.32 3.34 3.64 3 5 C1.68 4.67 0.36 4.34 -1 4 C-0.67 2.68 -0.34 1.36 0 0 Z " fill="#F1F2F7" transform="translate(275,64)"/>
<path d="M0 0 C1.98 0.495 1.98 0.495 4 1 C3.67 2.32 3.34 3.64 3 5 C1.68 4.67 0.36 4.34 -1 4 C-0.67 2.68 -0.34 1.36 0 0 Z " fill="#EEEEF5" transform="translate(302,60)"/>
<path d="M0 0 C1.98 0.495 1.98 0.495 4 1 C3.67 2.32 3.34 3.64 3 5 C1.68 4.67 0.36 4.34 -1 4 C-0.67 2.68 -0.34 1.36 0 0 Z " fill="#F1F2F7" transform="translate(287,54)"/>
<path d="M0 0 C3.93673644 1.31224548 6.22719294 2.91910327 9 6 C8.67 6.99 8.34 7.98 8 9 C7.7525 8.38125 7.505 7.7625 7.25 7.125 C5.76718549 4.60421533 4.59136042 4.2147002 2 3 C1.34 2.01 0.68 1.02 0 0 Z " fill="#D1D3E6" transform="translate(319,33)"/>
<path d="M0 0 C2.475 0.495 2.475 0.495 5 1 C5.33 2.32 5.66 3.64 6 5 C5.01 5 4.02 5 3 5 C3.33 4.34 3.66 3.68 4 3 C2.68 3.33 1.36 3.66 0 4 C0 2.68 0 1.36 0 0 Z " fill="#6782B6" transform="translate(255,18)"/>
<path d="M0 0 C1.97986082 0.11347619 3.95891598 0.2410935 5.9375 0.375 C7.03964844 0.44460937 8.14179688 0.51421875 9.27734375 0.5859375 C10.62505859 0.79089844 10.62505859 0.79089844 12 1 C12.33 1.66 12.66 2.32 13 3 C8.02398374 4.71050559 4.57383705 3.00885647 0 1 C0 0.67 0 0.34 0 0 Z " fill="#4765A5" transform="translate(273,115)"/>
<path d="M0 0 C0.66 0.99 1.32 1.98 2 3 C-2.625 6 -2.625 6 -6 6 C-4.75453595 2.26360784 -3.36595047 1.81243487 0 0 Z " fill="#4060A2" transform="translate(241,96)"/>
<path d="M0 0 C0.99 0.33 1.98 0.66 3 1 C3 2.32 3 3.64 3 5 C1.35 4.67 -0.3 4.34 -2 4 C-1.34 2.68 -0.68 1.36 0 0 Z " fill="#EDEEF5" transform="translate(278,79)"/>
<path d="M0 0 C0.99 0.33 1.98 0.66 3 1 C3 2.32 3 3.64 3 5 C1.35 4.67 -0.3 4.34 -2 4 C-1.34 2.68 -0.68 1.36 0 0 Z " fill="#EEEEF6" transform="translate(305,75)"/>
<path d="M0 0 C1.485 0.99 1.485 0.99 3 2 C2.67 3.98 2.34 5.96 2 8 C1.34 8 0.68 8 0 8 C0 5.36 0 2.72 0 0 Z " fill="#3D5DA0" transform="translate(274,125)"/>
<path d="M0 0 C1.98 0.99 1.98 0.99 4 2 C3.67 3.32 3.34 4.64 3 6 C2.01 6 1.02 6 0 6 C0 4.02 0 2.04 0 0 Z " fill="#8496C2" transform="translate(261,24)"/>
<path d="M0 0 C0.99 0.33 1.98 0.66 3 1 C3 2.65 3 4.3 3 6 C2.01 6 1.02 6 0 6 C0 4.02 0 2.04 0 0 Z " fill="#355C9F" transform="translate(307,127)"/>
<path d="M0 0 C0.99 1.32 1.98 2.64 3 4 C1.68 4.99 0.36 5.98 -1 7 C-1.66 6.67 -2.32 6.34 -3 6 C-2 4 -1 2 0 0 Z " fill="#4161A3" transform="translate(245,106)"/>
</svg>
